<svg version="1.1" id="Layer_1" xmlns="http://www.w3.org/2000/svg" xmlns:xlink="http://www.w3.org/1999/xlink" x="0px" y="0px"
	 width="100%" viewBox="0 0 600 600" enable-background="new 0 0 600 600" xml:space="preserve">
<path fill="#FFFFFF" opacity="1.000000" stroke="none" 
	d="
M1.000000,234.000000 
	C1.000000,156.000031 1.000000,78.500046 1.000000,1.000052 
	C200.999924,1.000035 400.999847,1.000035 600.999817,1.000017 
	C600.999878,200.999863 600.999878,400.999725 600.999939,600.999634 
	C401.000214,600.999756 201.000397,600.999756 1.000303,600.999878 
	C1.000000,478.833344 1.000000,356.666656 1.000000,234.000000 
M73.790108,356.140747 
	C85.493011,400.560394 108.695061,437.950195 142.087631,469.097290 
	C150.387665,462.262726 158.197922,455.831451 166.190552,449.250031 
	C205.574600,483.200439 250.856750,500.718597 302.241119,500.707092 
	C353.593872,500.695618 398.823303,483.053711 438.038940,449.330200 
	C446.202301,456.066895 453.988556,462.492401 461.751923,468.899048 
	C488.048645,446.158752 517.748413,405.625977 531.741394,355.191071 
	C543.011230,355.191071 554.281128,355.191071 566.000549,355.191071 
	C566.000549,353.096832 566.000549,351.475281 566.000549,349.853729 
	C566.000549,310.740356 566.005615,271.627014 565.997620,232.513657 
	C565.994995,219.550583 557.530457,211.018646 544.512451,210.839340 
	C537.197021,210.738602 529.881226,210.670197 522.309631,209.880966 
	C509.652863,177.243713 490.933289,148.540070 465.255066,124.762794 
	C404.104553,68.139236 332.314484,48.051472 250.785980,64.867500 
	C203.111618,74.700790 162.887619,98.689491 129.584457,134.083237 
	C108.600456,156.384491 92.480148,181.856979 80.830261,210.766083 
	C66.045845,210.766083 51.261433,210.766083 35.999290,210.766083 
	C35.999290,212.870407 35.999290,214.490509 35.999290,216.110626 
	C35.999290,255.265167 35.993473,294.419708 36.002644,333.574249 
	C36.005615,346.259583 44.389145,354.821838 57.145939,355.148224 
	C62.637299,355.288696 68.131630,355.313019 73.790108,356.140747 
M222.628998,528.808350 
	C224.200058,529.747803 225.771118,530.687195 228.401901,532.260315 
	C227.296860,527.282166 226.490082,523.647705 225.653595,519.879456 
	C226.825302,519.546387 227.596771,519.283081 228.387955,519.109619 
	C232.377548,518.234985 234.804718,515.297119 234.599548,511.718628 
	C234.433716,508.826355 232.841629,504.938171 230.592087,503.473999 
	C226.294830,500.677032 221.078613,499.291992 215.978378,497.212738 
	C212.544846,506.400024 209.417328,514.768433 206.163956,523.473633 
	C207.964890,524.099243 209.422302,524.605530 210.965759,525.141724 
	C212.263382,522.020447 213.379044,519.336914 214.432816,516.802246 
	C222.191086,517.461731 220.518097,523.904480 222.628998,528.808350 
M344.938049,538.984802 
	C349.575226,538.015808 354.431915,537.617798 358.796631,535.940002 
	C364.901215,533.593384 367.770996,527.113953 366.427765,520.877197 
	C364.947998,514.006714 360.076385,509.649139 353.146729,509.915131 
	C348.442108,510.095734 343.776459,511.292145 338.603119,512.112000 
	C340.626160,521.273315 342.508850,529.799194 344.938049,538.984802 
M202.491806,495.954803 
	C204.820023,497.127777 207.148254,498.300751 209.881805,499.677948 
	C210.612061,497.989777 211.148346,496.749969 211.745193,495.370209 
	C205.477249,492.141632 199.614731,489.121887 193.456818,485.950012 
	C189.118256,494.323669 184.950394,502.367859 180.585388,510.792542 
	C186.883514,514.065369 192.858643,517.170349 199.178299,520.454346 
	C199.935211,518.876160 200.523804,517.648926 201.186905,516.266357 
	C196.500107,513.751526 192.161697,511.423645 187.437958,508.889008 
	C188.642197,506.738556 189.640610,504.955658 190.737259,502.997345 
	C194.990311,505.095947 198.920486,507.035217 203.122177,509.108490 
	C203.807236,507.354858 204.302689,506.086578 204.802124,504.808136 
	C200.596054,502.596436 196.820114,500.610962 192.894867,498.546936 
	C194.019241,496.413605 194.989899,494.571930 195.985352,492.683197 
	C198.268356,493.828339 200.046066,494.720001 202.491806,495.954803 
M330.583282,518.035828 
	C334.386536,518.238403 335.882080,516.892334 333.866364,512.941223 
	C327.256104,513.603882 320.692932,514.261841 313.661377,514.966736 
	C314.550781,524.410156 315.399872,533.425903 316.280487,542.776428 
	C323.479706,542.078125 330.169678,541.429260 336.660553,540.799683 
	C337.715332,536.724243 336.216583,535.866028 332.876282,536.369568 
	C329.127747,536.934570 325.318115,537.094177 321.586517,537.425598 
	C319.906067,530.461365 319.925720,530.440552 326.517242,530.012573 
	C328.010193,529.915649 329.496704,529.703857 330.990326,529.637024 
	C334.588226,529.475952 334.477020,527.585938 333.206573,524.753418 
	C328.879150,525.080383 324.615356,525.402527 320.063843,525.746399 
	C319.826050,523.518799 319.604736,521.445557 319.368805,519.235474 
	C323.106659,518.816467 326.406250,518.446533 330.583282,518.035828 
M445.987732,497.536743 
	C445.698883,496.007080 445.410004,494.477448 445.039703,492.516632 
	C439.865784,495.851685 435.717194,498.525848 431.356750,501.336548 
	C429.989044,499.203278 428.857788,497.438843 427.667053,495.581604 
	C431.703430,492.841248 435.362885,490.356812 439.154724,487.782471 
	C438.049835,486.346100 437.256042,485.314087 436.391083,484.189606 
	C432.501617,486.636627 428.769836,488.984467 424.883301,491.429657 
	C423.533417,489.295258 422.503967,487.667480 421.383514,485.895813 
	C425.897827,482.868591 429.986115,480.127045 434.338165,477.208649 
	C433.193451,475.783447 432.327332,474.705078 431.396912,473.546692 
	C425.555786,477.382721 420.049957,480.998566 414.259644,484.801208 
	C419.524689,492.842377 424.491821,500.428528 429.586823,508.209961 
	C435.101257,504.632355 440.255615,501.288391 445.987732,497.536743 
M396.778351,494.314575 
	C396.032410,495.410431 395.165649,496.443817 394.561127,497.612823 
	C391.729218,503.089172 392.635376,508.361389 396.142670,513.074585 
	C399.451324,517.520752 404.090790,519.615784 409.706940,518.518555 
	C415.695892,517.348389 419.927582,514.092163 421.560577,507.611145 
	C420.046692,507.112976 418.726410,506.678497 417.506683,506.277130 
	C413.732269,512.397766 410.508514,514.540405 406.386749,513.556152 
	C401.626923,512.419495 398.547119,509.043976 398.477875,504.414917 
	C398.345367,495.559326 404.407013,493.972534 411.843597,494.872467 
	C412.202911,493.250244 412.509888,491.864227 412.833954,490.401154 
	C406.673340,488.315765 401.758301,490.044250 396.778351,494.314575 
M181.981277,485.577454 
	C182.885422,489.634460 185.265167,488.565155 187.758911,487.383698 
	C185.678864,478.824554 178.157928,473.593597 170.491760,475.246124 
	C162.632858,476.940186 157.652832,484.461395 158.962387,492.500916 
	C160.117035,499.589447 168.769730,506.213257 177.002533,503.412903 
	C176.827866,502.102844 176.643768,500.721985 176.491135,499.577271 
	C173.795059,499.104492 171.353195,499.115906 169.307739,498.221100 
	C165.659912,496.625366 163.614426,493.587952 164.090317,489.448456 
	C164.613007,484.901855 167.181030,481.687134 171.558365,480.399902 
	C176.016861,479.088776 179.259109,481.248810 181.981277,485.577454 
M297.785431,518.335083 
	C297.178345,517.222717 296.667847,515.215942 295.949005,515.138428 
	C289.729218,514.466797 283.471924,514.142151 277.063599,513.703125 
	C276.362701,523.314636 275.703369,532.356140 275.032562,541.554688 
	C277.144043,541.554688 278.543488,541.554688 280.044556,541.554688 
	C280.493347,537.837219 280.906006,534.418701 281.338013,530.840149 
	C286.057098,531.095032 290.446564,531.332153 294.863708,531.570740 
	C294.863708,529.780212 294.863708,528.503662 294.863708,527.081726 
	C290.394897,526.631958 286.129181,526.202576 281.573792,525.744080 
	C281.733826,523.443787 281.878723,521.361389 282.035278,519.110962 
	C287.404022,519.110962 292.432190,519.110962 297.785431,518.335083 
M246.144226,507.585022 
	C244.088257,507.083679 242.032303,506.582336 239.640640,505.999115 
	C239.281235,507.696869 238.990799,509.068726 238.689255,510.493103 
	C241.566956,511.412354 244.165436,512.242432 246.834717,513.095093 
	C245.302460,519.347839 244.016769,525.169128 242.422089,530.904480 
	C241.317673,534.876526 242.311172,536.544922 246.674911,535.787598 
	C248.515503,528.482239 250.326065,521.296082 252.134735,514.117432 
	C255.178665,514.787659 257.857880,515.377563 260.812042,516.028015 
	C261.016632,514.064819 261.161041,512.678955 261.311310,511.237061 
	C256.272369,510.037598 251.601334,508.925751 246.144226,507.585022 
M307.670380,518.814270 
	C308.247437,514.179993 305.530792,514.584351 302.557007,515.297852 
	C302.557007,524.512695 302.557007,533.570496 302.557007,543.081543 
	C304.614655,542.877197 306.149933,542.724792 307.670441,542.573792 
	C307.670441,534.645569 307.670441,527.196472 307.670380,518.814270 
M266.761932,512.045959 
	C264.893555,521.105530 263.025177,530.165100 261.070984,539.640869 
	C263.656891,539.790833 265.064911,539.872498 266.679901,539.966187 
	C268.003876,531.676880 269.145905,523.654175 270.629639,515.695190 
	C271.172729,512.781982 269.912048,512.165100 266.761932,512.045959 
M380.611633,512.980225 
	C377.675507,513.738525 376.279327,515.648315 377.626312,518.416931 
	C378.178925,519.552795 380.251007,520.715576 381.456421,520.554321 
	C382.687042,520.389709 384.792145,518.311584 384.595428,517.606384 
	C384.119049,515.898560 382.526215,514.502136 380.611633,512.980225 
z"/>
<path fill="#E2221D" opacity="1.000000" stroke="none" 
	d="
M522.565552,210.587234 
	C529.881226,210.670197 537.197021,210.738602 544.512451,210.839340 
	C557.530457,211.018646 565.994995,219.550583 565.997620,232.513657 
	C566.005615,271.627014 566.000549,310.740356 566.000549,349.853729 
	C566.000549,351.475281 566.000549,353.096832 566.000549,355.191071 
	C554.281128,355.191071 543.011230,355.191071 530.854797,355.173950 
	C527.372314,355.208221 524.776489,355.259644 521.694702,355.247101 
	C513.626953,355.259766 506.045166,355.336365 497.998291,355.314575 
	C495.030609,355.257904 492.527985,355.299591 489.555115,355.264648 
	C365.249603,355.178925 241.414352,355.169342 117.579102,355.168823 
	C116.418381,355.168823 115.257652,355.289856 113.642799,355.273010 
	C110.727478,355.252808 108.266281,355.313995 105.352966,355.299683 
	C97.257034,355.263702 89.613228,355.303284 81.517868,355.260925 
	C78.585747,355.249390 76.105179,355.319763 73.624611,355.390137 
	C68.131630,355.313019 62.637299,355.288696 57.145939,355.148224 
	C44.389145,354.821838 36.005615,346.259583 36.002644,333.574249 
	C35.993473,294.419708 35.999290,255.265167 35.999290,216.110626 
	C35.999290,214.490509 35.999290,212.870407 35.999290,210.766083 
	C51.261433,210.766083 66.045845,210.766083 81.717407,210.781403 
	C85.235512,210.804138 87.866486,210.811539 91.014481,210.827423 
	C99.354591,210.769836 107.177666,210.703766 115.440704,210.728561 
	C118.575859,210.761795 121.271042,210.704178 124.426361,210.730408 
	C242.329422,210.823975 359.772339,210.834122 477.215271,210.836166 
	C478.210846,210.836182 479.206451,210.726807 480.625549,210.756775 
	C483.745270,210.772644 486.441467,210.700241 489.591278,210.705673 
	C498.024231,210.740555 506.003571,210.697601 514.443420,210.736145 
	C517.457825,210.740845 520.011658,210.664032 522.565552,210.587234 
M104.819145,267.500183 
	C104.819145,282.074219 104.819145,296.648254 104.819145,311.209290 
	C108.977669,311.209290 112.379402,311.209290 116.154724,311.209290 
	C116.154724,296.466400 116.154724,282.071655 116.154724,266.523956 
	C126.817429,280.260620 137.099533,292.858521 146.580246,306.033173 
	C150.489868,311.466064 154.748779,312.423004 160.582947,311.095581 
	C160.582947,289.823303 160.582947,268.744171 160.582947,247.434265 
	C156.751541,247.434265 153.191696,247.434265 149.127960,247.434265 
	C149.127960,261.580902 149.127960,275.451721 149.127960,290.622375 
	C147.626541,288.764069 146.926529,287.926941 146.257797,287.065582 
	C137.476807,275.754852 128.274597,264.737213 120.101723,253.002716 
	C116.003189,247.118103 111.387932,246.303055 104.819099,247.665482 
	C104.819099,253.929657 104.819099,260.215027 104.819145,267.500183 
M301.811523,275.584808 
	C300.875885,272.744049 299.683411,269.957306 299.071960,267.048401 
	C298.364410,263.682434 296.778107,262.557709 293.272675,262.694183 
	C289.839233,262.827881 287.503113,262.973358 286.366028,267.086670 
	C283.861176,276.147583 280.720917,285.032837 277.411102,295.323059 
	C273.953430,283.696960 270.892334,273.404327 267.888245,263.303375 
	C263.937744,263.303375 260.378906,263.303375 256.332428,263.303375 
	C260.699554,277.012756 264.905029,290.302124 269.170074,303.572388 
	C271.963684,312.264374 272.002289,312.251953 281.973297,311.612732 
	C285.387543,301.375885 288.857117,290.973053 292.723145,279.381622 
	C296.016510,289.386322 299.119659,298.140167 301.720032,307.040894 
	C302.774933,310.651642 304.224396,312.050629 308.164368,312.011475 
	C312.072662,311.972656 314.293365,311.213684 315.132477,307.034790 
	C315.878906,303.317474 317.448944,299.767761 318.623840,296.133850 
	C322.143066,285.248901 325.646790,274.358978 329.225372,263.257507 
	C325.223816,263.257507 321.647369,263.257507 317.901703,263.257507 
	C314.789185,273.603546 311.735291,283.754730 308.259064,295.309814 
	C305.913239,288.185852 303.965240,282.269897 301.811523,275.584808 
M458.573669,292.907654 
	C456.256622,289.511719 453.939575,286.115784 451.622498,282.719849 
	C451.134857,282.024048 450.647217,281.328217 450.159576,280.632416 
	C456.598938,274.823425 463.038300,269.014404 469.715790,262.990570 
	C467.653381,262.990570 465.955475,263.216888 464.339386,262.949310 
	C458.843872,262.039490 454.990509,264.160004 451.526459,268.433716 
	C447.394867,273.530914 442.596313,278.087555 437.245544,283.771973 
	C437.245544,270.038300 437.245544,257.501770 437.245544,244.821625 
	C433.189240,244.821625 429.650543,244.821625 426.032074,244.821625 
	C426.032074,267.135742 426.032074,289.071960 426.032074,311.192810 
	C429.791443,311.192810 433.333221,311.192810 437.178589,311.192810 
	C437.178589,307.183502 436.437103,303.325653 437.388794,299.944397 
	C438.325928,296.614807 440.979279,293.768250 443.271973,290.078339 
	C447.087677,295.569000 450.216003,300.055939 453.329102,304.553406 
	C458.630402,312.212219 461.120331,313.122589 470.924133,310.774109 
	C466.908630,304.953033 462.954224,299.220520 458.573669,292.907654 
M338.536652,304.949677 
	C348.164520,313.505005 360.999817,314.963959 371.255524,308.668762 
	C380.551361,302.962830 385.140808,291.577667 382.420868,280.970917 
	C379.813660,270.803802 371.702332,263.503876 361.478973,262.123840 
	C350.268188,260.610535 339.939636,265.481415 334.729462,274.738739 
	C329.354675,284.288544 330.559753,295.107147 338.536652,304.949677 
M208.826569,266.597168 
	C196.819794,258.605408 182.506485,261.007294 175.066742,272.262299 
	C167.178360,284.196045 170.304962,301.325348 181.657608,308.610016 
	C192.469910,315.547913 209.640610,312.829132 215.173035,302.899536 
	C213.131287,301.141968 211.039078,299.341003 208.887650,297.489044 
	C202.913239,302.741577 196.553665,305.021301 189.355148,301.601532 
	C185.308655,299.679138 182.756775,296.348663 182.647034,291.177124 
	C193.295090,291.177124 203.591599,291.071472 213.883560,291.240936 
	C217.005981,291.292328 218.110062,290.165802 217.846970,287.201782 
	C217.170258,279.577606 215.382263,272.434845 208.826569,266.597168 
M238.557831,251.909637 
	C237.844391,251.215118 237.174210,249.983002 236.409805,249.921463 
	C233.481995,249.685760 230.523895,249.826111 227.114044,249.826111 
	C227.114044,254.442398 227.114044,258.523987 227.114044,262.839203 
	C224.900040,262.943848 223.140717,263.026978 221.315094,263.113251 
	C221.315094,266.476105 221.315094,269.526642 221.315094,272.638702 
	C223.383331,272.822418 225.125702,272.977173 227.137390,273.155853 
	C227.137390,281.148590 227.047073,288.789093 227.184769,296.425507 
	C227.235214,299.222992 227.389328,302.155579 228.257660,304.774017 
	C230.337265,311.044952 238.017319,313.787933 246.548691,311.674744 
	C251.523010,310.442596 251.965561,309.323822 250.704758,301.130219 
	C248.605118,301.412872 246.512329,301.806183 244.402374,301.953064 
	C241.024826,302.188171 238.786972,300.588593 238.715927,297.151428 
	C238.551895,289.216034 238.663834,281.274933 238.663834,272.727905 
	C243.139771,272.727905 247.190598,272.727905 251.290802,272.727905 
	C251.290802,269.178711 251.290802,266.252747 251.290802,262.820251 
	C246.938492,262.820251 242.863098,262.820251 238.573257,262.820251 
	C238.573257,259.151855 238.573257,255.993454 238.557831,251.909637 
M489.148438,290.574463 
	C489.148438,294.182495 489.148438,297.790527 489.148438,301.472839 
	C493.101318,301.472839 496.463684,301.472839 500.292847,301.472839 
	C500.292847,295.529358 500.292847,289.963562 500.292847,284.056091 
	C506.192993,284.056091 511.625000,284.056091 517.303345,284.056091 
	C517.303345,280.612946 517.303345,277.531403 517.303345,273.978882 
	C511.524750,273.978882 505.955658,273.978882 499.931915,273.978882 
	C499.931915,267.965240 499.931915,262.405121 499.931915,256.874634 
	C496.080994,256.874634 492.721039,256.874634 489.009644,256.874634 
	C489.009644,262.731537 489.009644,268.161041 489.009644,274.112366 
	C483.107239,274.112366 477.546753,274.112366 472.152069,274.112366 
	C472.152069,277.738922 472.152069,280.815277 472.152069,284.307037 
	C477.892395,284.307037 483.308014,284.307037 489.148468,284.307037 
	C489.148468,286.362274 489.148468,287.988953 489.148438,290.574463 
M419.873077,269.341187 
	C419.873077,267.042908 419.873077,264.744598 419.873077,262.275726 
	C412.117615,261.288635 407.481354,265.446686 402.894043,271.907104 
	C402.894043,268.231018 402.894043,265.856049 402.894043,263.273376 
	C398.896301,263.273376 395.351044,263.273376 391.407806,263.273376 
	C391.407806,271.535492 391.407806,279.501160 391.407806,287.466827 
	C391.407806,295.392303 391.407806,303.317810 391.407806,311.294556 
	C395.569885,311.294556 398.993073,311.294556 402.873230,311.294556 
	C402.873230,305.049255 402.844543,299.095123 402.879211,293.141327 
	C402.951050,280.809753 407.536011,275.439575 419.646240,273.631134 
	C419.719971,272.529510 419.796448,271.386749 419.873077,269.341187 
z"/>
<path fill="#6E777F" opacity="1.000000" stroke="none" 
	d="
M522.180603,355.311035 
	C524.776489,355.259644 527.372314,355.208221 530.378052,355.247009 
	C517.748413,405.625977 488.048645,446.158752 461.751923,468.899048 
	C453.988556,462.492401 446.202301,456.066895 438.038940,449.330200 
	C398.823303,483.053711 353.593872,500.695618 302.241119,500.707092 
	C250.856750,500.718597 205.574600,483.200439 166.190552,449.250031 
	C158.197922,455.831451 150.387665,462.262726 142.087631,469.097290 
	C108.695061,437.950195 85.493011,400.560394 73.707359,355.765442 
	C76.105179,355.319763 78.585747,355.249390 81.566078,355.624359 
	C92.803864,395.657715 113.185539,429.480988 142.401016,458.237244 
	C148.636353,453.148224 154.361984,448.475220 160.215485,443.697845 
	C134.491608,418.516785 116.085869,389.435364 105.805092,355.375183 
	C108.266281,355.313995 110.727478,355.252808 113.730042,355.607758 
	C124.734344,388.156342 142.449203,415.657623 166.067703,438.200989 
	C181.171768,430.567047 195.298920,422.337891 210.273361,416.163605 
	C225.355377,409.944946 241.279358,405.768311 257.140686,400.597076 
	C257.140686,398.447876 257.132629,395.789154 257.142151,393.130524 
	C257.178802,382.900055 262.961670,377.164673 273.320435,377.146301 
	C286.478027,377.123016 299.635681,377.140686 312.793304,377.140656 
	C315.735687,377.140656 318.678070,377.140656 322.134827,377.140656 
	C322.134827,385.661865 322.134827,393.561768 322.134827,402.298035 
	C343.518005,399.677063 363.252960,404.470306 382.657867,411.453033 
	C401.975067,418.404175 420.092407,427.708527 437.200745,439.192261 
	C461.883118,415.356903 479.971069,387.885590 490.025360,355.341309 
	C492.527985,355.299591 495.030609,355.257904 497.895782,355.680603 
	C487.815948,389.910828 469.530304,418.854523 443.905884,443.785370 
	C447.646515,446.776306 451.076660,449.619385 454.629364,452.300049 
	C455.730438,453.130859 457.164490,453.520447 458.749329,454.197052 
	C459.676117,455.656403 460.299591,457.030731 461.151733,458.909149 
	C462.292664,456.950531 463.143219,455.490417 464.355103,454.038940 
	C466.006409,453.102295 467.472137,452.324768 468.559875,451.186157 
	C482.764648,436.317047 494.624420,419.751068 504.186981,401.547760 
	C511.925995,386.815765 518.379089,371.577972 522.180603,355.311035 
M364.229523,482.762268 
	C388.694519,474.401123 410.857880,462.066620 430.496185,445.005066 
	C415.009399,431.450165 365.199432,411.029999 346.620117,410.600891 
	C346.620117,423.397400 346.621552,436.188782 346.619720,448.980164 
	C346.617859,462.270660 341.979980,466.852081 328.507935,466.857849 
	C314.849487,466.863678 301.191071,466.859039 287.532623,466.859039 
	C285.763123,466.859039 283.993622,466.859070 281.734985,466.859070 
	C281.734985,458.264099 281.734985,450.343414 281.734985,441.903748 
	C273.348846,441.903748 265.448700,441.903748 256.917847,441.903748 
	C256.917847,431.046082 256.917847,420.706970 256.917847,410.294006 
	C229.476120,414.927460 183.927521,434.133911 173.662842,445.564148 
	C230.636414,490.665253 293.556091,504.254578 364.229523,482.762268 
M338.854126,419.560883 
	C338.854126,416.314484 338.854126,413.068085 338.854126,409.703613 
	C332.806824,409.703613 327.568115,409.703613 321.827942,409.703613 
	C321.827942,420.586578 321.827942,431.151245 321.827942,442.233093 
	C310.788177,442.233093 300.246643,442.233093 289.774780,442.233093 
	C289.774780,448.014923 289.774780,453.252014 289.774780,458.844757 
	C304.291595,458.844757 318.413330,458.932892 332.532867,458.793732 
	C337.066498,458.749054 338.860443,455.769928 338.856415,451.487671 
	C338.846680,441.172668 338.853729,430.857697 338.854126,419.560883 
M306.419098,401.844269 
	C308.857513,401.844269 311.295929,401.844269 313.864990,401.844269 
	C313.864990,395.946899 313.864990,390.707458 313.864990,385.064331 
	C299.485077,385.064331 285.375000,384.874329 271.275665,385.180756 
	C267.075012,385.272095 264.982483,388.407532 264.995789,392.735901 
	C265.028534,403.388184 265.005585,414.040588 265.005127,424.692963 
	C265.004974,427.778442 265.005096,430.863892 265.005096,433.752808 
	C271.024902,433.752808 276.259705,433.752808 282.018616,433.752808 
	C282.018616,422.978760 282.018616,412.583435 282.018616,401.844116 
	C290.180023,401.844116 297.810669,401.844116 306.419098,401.844269 
M309.396088,434.156738 
	C310.838745,434.060852 312.281403,433.964935 313.852295,433.860535 
	C313.852295,425.647400 313.852295,417.764069 313.852295,409.376526 
	C306.441284,409.376526 299.322235,409.279053 292.212372,409.491058 
	C291.246216,409.519836 289.536591,411.073486 289.509552,411.961823 
	C289.288361,419.226959 289.384918,426.501770 289.384918,434.156982 
	C296.145599,434.156982 302.279449,434.156982 309.396088,434.156738 
z"/>
<path fill="#6E777F" opacity="1.000000" stroke="none" 
	d="
M90.497452,210.818939 
	C87.866486,210.811539 85.235512,210.804138 82.162430,210.706879 
	C92.480148,181.856979 108.600456,156.384491 129.584457,134.083237 
	C162.887619,98.689491 203.111618,74.700790 250.785980,64.867500 
	C332.314484,48.051472 404.104553,68.139236 465.255066,124.762794 
	C490.933289,148.540070 509.652863,177.243713 522.437622,210.234100 
	C520.011658,210.664032 517.457825,210.740845 514.339172,210.410675 
	C510.946259,203.807449 508.309326,197.515427 505.261139,191.429398 
	C462.171234,105.396111 364.938873,54.666615 269.899261,69.271431 
	C201.879807,79.724022 148.604492,114.061630 110.725739,171.480331 
	C102.653748,183.716309 97.172356,197.661285 90.497452,210.818939 
z"/>
<path fill="#E32C27" opacity="1.000000" stroke="none" 
	d="
M222.470047,528.440796 
	C220.518097,523.904480 222.191086,517.461731 214.432816,516.802246 
	C213.379044,519.336914 212.263382,522.020447 210.965759,525.141724 
	C209.422302,524.605530 207.964890,524.099243 206.163956,523.473633 
	C209.417328,514.768433 212.544846,506.400024 215.978378,497.212738 
	C221.078613,499.291992 226.294830,500.677032 230.592087,503.473999 
	C232.841629,504.938171 234.433716,508.826355 234.599548,511.718628 
	C234.804718,515.297119 232.377548,518.234985 228.387955,519.109619 
	C227.596771,519.283081 226.825302,519.546387 225.653595,519.879456 
	C226.490082,523.647705 227.296860,527.282166 228.401901,532.260315 
	C225.771118,530.687195 224.200058,529.747803 222.470047,528.440796 
M228.192337,507.651428 
	C225.306732,506.286255 222.421143,504.921112 219.245605,503.418762 
	C218.027405,506.705475 217.093018,509.226471 216.064133,512.002441 
	C218.580719,512.912903 220.560013,513.719604 222.594528,514.347168 
	C227.646896,515.905640 229.878952,513.664978 228.192337,507.651428 
z"/>
<path fill="#E32C27" opacity="1.000000" stroke="none" 
	d="
M344.664795,538.654907 
	C342.508850,529.799194 340.626160,521.273315 338.603119,512.112000 
	C343.776459,511.292145 348.442108,510.095734 353.146729,509.915131 
	C360.076385,509.649139 364.947998,514.006714 366.427765,520.877197 
	C367.770996,527.113953 364.901215,533.593384 358.796631,535.940002 
	C354.431915,537.617798 349.575226,538.015808 344.664795,538.654907 
M347.956360,530.379639 
	C348.506836,531.488159 348.824463,533.320435 349.646515,533.584961 
	C354.153809,535.035278 361.034454,529.536072 361.293304,524.533447 
	C361.737549,515.949097 353.940887,512.096863 344.888641,516.641235 
	C345.861023,520.913635 346.846680,525.244446 347.956360,530.379639 
z"/>
<path fill="#E42D28" opacity="1.000000" stroke="none" 
	d="
M202.157776,495.783234 
	C200.046066,494.720001 198.268356,493.828339 195.985352,492.683197 
	C194.989899,494.571930 194.019241,496.413605 192.894867,498.546936 
	C196.820114,500.610962 200.596054,502.596436 204.802124,504.808136 
	C204.302689,506.086578 203.807236,507.354858 203.122177,509.108490 
	C198.920486,507.035217 194.990311,505.095947 190.737259,502.997345 
	C189.640610,504.955658 188.642197,506.738556 187.437958,508.889008 
	C192.161697,511.423645 196.500107,513.751526 201.186905,516.266357 
	C200.523804,517.648926 199.935211,518.876160 199.178299,520.454346 
	C192.858643,517.170349 186.883514,514.065369 180.585388,510.792542 
	C184.950394,502.367859 189.118256,494.323669 193.456818,485.950012 
	C199.614731,489.121887 205.477249,492.141632 211.745193,495.370209 
	C211.148346,496.749969 210.612061,497.989777 209.881805,499.677948 
	C207.148254,498.300751 204.820023,497.127777 202.157776,495.783234 
z"/>
<path fill="#E4322D" opacity="1.000000" stroke="none" 
	d="
M330.144531,518.056274 
	C326.406250,518.446533 323.106659,518.816467 319.368805,519.235474 
	C319.604736,521.445557 319.826050,523.518799 320.063843,525.746399 
	C324.615356,525.402527 328.879150,525.080383 333.206573,524.753418 
	C334.477020,527.585938 334.588226,529.475952 330.990326,529.637024 
	C329.496704,529.703857 328.010193,529.915649 326.517242,530.012573 
	C319.925720,530.440552 319.906067,530.461365 321.586517,537.425598 
	C325.318115,537.094177 329.127747,536.934570 332.876282,536.369568 
	C336.216583,535.866028 337.715332,536.724243 336.660553,540.799683 
	C330.169678,541.429260 323.479706,542.078125 316.280487,542.776428 
	C315.399872,533.425903 314.550781,524.410156 313.661377,514.966736 
	C320.692932,514.261841 327.256104,513.603882 333.866364,512.941223 
	C335.882080,516.892334 334.386536,518.238403 330.144531,518.056274 
z"/>
<path fill="#E42D28" opacity="1.000000" stroke="none" 
	d="
M445.698853,497.740570 
	C440.255615,501.288391 435.101257,504.632355 429.586823,508.209961 
	C424.491821,500.428528 419.524689,492.842377 414.259644,484.801208 
	C420.049957,480.998566 425.555786,477.382721 431.396912,473.546692 
	C432.327332,474.705078 433.193451,475.783447 434.338165,477.208649 
	C429.986115,480.127045 425.897827,482.868591 421.383514,485.895813 
	C422.503967,487.667480 423.533417,489.295258 424.883301,491.429657 
	C428.769836,488.984467 432.501617,486.636627 436.391083,484.189606 
	C437.256042,485.314087 438.049835,486.346100 439.154724,487.782471 
	C435.362885,490.356812 431.703430,492.841248 427.667053,495.581604 
	C428.857788,497.438843 429.989044,499.203278 431.356750,501.336548 
	C435.717194,498.525848 439.865784,495.851685 445.039703,492.516632 
	C445.410004,494.477448 445.698883,496.007080 445.698853,497.740570 
z"/>
<path fill="#E42F2A" opacity="1.000000" stroke="none" 
	d="
M397.037445,494.054474 
	C401.758301,490.044250 406.673340,488.315765 412.833954,490.401154 
	C412.509888,491.864227 412.202911,493.250244 411.843597,494.872467 
	C404.407013,493.972534 398.345367,495.559326 398.477875,504.414917 
	C398.547119,509.043976 401.626923,512.419495 406.386749,513.556152 
	C410.508514,514.540405 413.732269,512.397766 417.506683,506.277130 
	C418.726410,506.678497 420.046692,507.112976 421.560577,507.611145 
	C419.927582,514.092163 415.695892,517.348389 409.706940,518.518555 
	C404.090790,519.615784 399.451324,517.520752 396.142670,513.074585 
	C392.635376,508.361389 391.729218,503.089172 394.561127,497.612823 
	C395.165649,496.443817 396.032410,495.410431 397.037445,494.054474 
z"/>
<path fill="#E32C28" opacity="1.000000" stroke="none" 
	d="
M181.833206,485.236023 
	C179.259109,481.248810 176.016861,479.088776 171.558365,480.399902 
	C167.181030,481.687134 164.613007,484.901855 164.090317,489.448456 
	C163.614426,493.587952 165.659912,496.625366 169.307739,498.221100 
	C171.353195,499.115906 173.795059,499.104492 176.491135,499.577271 
	C176.643768,500.721985 176.827866,502.102844 177.002533,503.412903 
	C168.769730,506.213257 160.117035,499.589447 158.962387,492.500916 
	C157.652832,484.461395 162.632858,476.940186 170.491760,475.246124 
	C178.157928,473.593597 185.678864,478.824554 187.758911,487.383698 
	C185.265167,488.565155 182.885422,489.634460 181.833206,485.236023 
z"/>
<path fill="#E4322D" opacity="1.000000" stroke="none" 
	d="
M297.622894,518.723022 
	C292.432190,519.110962 287.404022,519.110962 282.035278,519.110962 
	C281.878723,521.361389 281.733826,523.443787 281.573792,525.744080 
	C286.129181,526.202576 290.394897,526.631958 294.863708,527.081726 
	C294.863708,528.503662 294.863708,529.780212 294.863708,531.570740 
	C290.446564,531.332153 286.057098,531.095032 281.338013,530.840149 
	C280.906006,534.418701 280.493347,537.837219 280.044556,541.554688 
	C278.543488,541.554688 277.144043,541.554688 275.032562,541.554688 
	C275.703369,532.356140 276.362701,523.314636 277.063599,513.703125 
	C283.471924,514.142151 289.729218,514.466797 295.949005,515.138428 
	C296.667847,515.215942 297.178345,517.222717 297.622894,518.723022 
z"/>
<path fill="#E42D28" opacity="1.000000" stroke="none" 
	d="
M246.537262,507.699463 
	C251.601334,508.925751 256.272369,510.037598 261.311310,511.237061 
	C261.161041,512.678955 261.016632,514.064819 260.812042,516.028015 
	C257.857880,515.377563 255.178665,514.787659 252.134735,514.117432 
	C250.326065,521.296082 248.515503,528.482239 246.674911,535.787598 
	C242.311172,536.544922 241.317673,534.876526 242.422089,530.904480 
	C244.016769,525.169128 245.302460,519.347839 246.834717,513.095093 
	C244.165436,512.242432 241.566956,511.412354 238.689255,510.493103 
	C238.990799,509.068726 239.281235,507.696869 239.640640,505.999115 
	C242.032303,506.582336 244.088257,507.083679 246.537262,507.699463 
z"/>
<path fill="#E6403B" opacity="1.000000" stroke="none" 
	d="
M307.670410,519.280823 
	C307.670441,527.196472 307.670441,534.645569 307.670441,542.573792 
	C306.149933,542.724792 304.614655,542.877197 302.557007,543.081543 
	C302.557007,533.570496 302.557007,524.512695 302.557007,515.297852 
	C305.530792,514.584351 308.247437,514.179993 307.670410,519.280823 
z"/>
<path fill="#E42F2A" opacity="1.000000" stroke="none" 
	d="
M267.171692,512.049927 
	C269.912048,512.165100 271.172729,512.781982 270.629639,515.695190 
	C269.145905,523.654175 268.003876,531.676880 266.679901,539.966187 
	C265.064911,539.872498 263.656891,539.790833 261.070984,539.640869 
	C263.025177,530.165100 264.893555,521.105530 267.171692,512.049927 
z"/>
<path fill="#E53430" opacity="1.000000" stroke="none" 
	d="
M380.997498,512.980225 
	C382.526215,514.502136 384.119049,515.898560 384.595428,517.606384 
	C384.792145,518.311584 382.687042,520.389709 381.456421,520.554321 
	C380.251007,520.715576 378.178925,519.552795 377.626312,518.416931 
	C376.279327,515.648315 377.675507,513.738525 380.997498,512.980225 
z"/>
<path fill="#FEFDFD" opacity="1.000000" stroke="none" 
	d="
M480.202026,210.668518 
	C479.206451,210.726807 478.210846,210.836182 477.215271,210.836166 
	C359.772339,210.834122 242.329422,210.823975 124.522415,210.407043 
	C134.324814,188.542847 147.948715,169.529373 165.212402,153.266983 
	C210.595459,110.516212 264.531036,92.262329 326.364532,99.397461 
	C373.227081,104.805038 412.939392,125.593445 445.503265,159.759171 
	C459.840973,174.802094 471.754974,191.573029 480.202026,210.668518 
M308.188690,182.049561 
	C308.406006,182.027283 308.623871,182.015015 309.232788,182.621872 
	C311.049347,183.654144 312.757965,185.244949 314.701416,185.620377 
	C322.423279,187.112045 330.305908,181.866287 331.839630,174.568405 
	C333.408722,167.102203 328.671539,159.791977 321.037903,157.899704 
	C312.685791,155.829330 303.178040,160.004089 302.302734,167.520935 
	C301.225861,176.768570 302.045624,186.237076 302.045624,195.610107 
	C302.547150,195.859818 303.048676,196.109528 303.550201,196.359238 
	C304.851288,194.075150 306.575989,191.921402 307.330505,189.469147 
	C308.039948,187.163330 307.725433,184.542435 308.188690,182.049561 
M226.125168,175.246887 
	C223.641571,175.749008 221.096405,176.055786 218.693298,176.813248 
	C216.661880,177.453568 214.878937,178.904404 212.840759,179.497116 
	C204.442551,181.939346 195.077759,176.631271 193.253708,168.559616 
	C191.609680,161.284576 197.374527,153.641907 205.787277,152.212128 
	C211.389236,151.260056 216.336014,152.930435 220.511017,156.758133 
	C222.762985,158.822800 225.049881,160.041641 228.147507,157.843964 
	C225.887573,152.455673 221.766632,149.283386 216.599762,147.524734 
	C207.848068,144.545883 199.738602,145.950302 193.018494,152.438156 
	C187.399490,157.862976 185.580902,164.654587 188.221054,172.112595 
	C190.964645,179.862854 196.900040,184.203430 204.850266,185.535019 
	C212.736145,186.855835 219.720215,184.714523 225.233368,178.745377 
	C226.121964,177.783264 226.339432,176.201324 227.643616,174.854141 
	C228.175140,176.070587 228.588837,177.356461 229.257889,178.491852 
	C232.792450,184.490036 240.629654,187.203247 248.069397,185.073044 
	C254.522659,183.225296 258.805450,177.927536 258.855133,171.731293 
	C258.905762,165.412735 254.329010,159.755920 247.784164,158.047623 
	C240.215973,156.072220 232.284378,158.814728 229.236084,165.120529 
	C227.802612,168.085861 227.665924,171.678070 226.125168,175.246887 
M410.783203,179.378510 
	C406.365387,169.712952 402.063110,159.991257 397.420166,150.435104 
	C396.611603,148.770920 394.478516,147.009155 392.749573,146.765427 
	C391.340881,146.566818 388.838470,148.205841 388.163818,149.655106 
	C382.640686,161.519562 377.432526,173.530655 371.175537,185.205887 
	C371.005402,183.411591 370.698730,181.618088 370.688232,179.822861 
	C370.636871,171.037918 370.653839,162.252487 370.668823,153.467270 
	C370.675598,149.490936 369.153473,146.944016 364.380707,146.579514 
	C364.380707,157.857834 364.219971,168.766922 364.456146,179.667419 
	C364.557098,184.327301 366.974182,185.842468 372.775848,185.785919 
	C375.163361,184.581238 379.148926,183.837143 379.652618,182.089508 
	C381.507568,175.653702 385.852478,175.388779 391.071259,175.824936 
	C393.375549,176.017517 395.744507,176.112427 398.021698,175.798706 
	C401.597107,175.306137 403.095154,177.062286 404.752106,179.972183 
	C406.041901,182.237320 408.850739,183.637497 410.984467,185.422073 
	C411.397186,184.521423 411.809937,183.620789 412.930328,183.162460 
	C414.694550,182.821808 416.458740,182.481155 418.222961,182.140503 
	C417.980865,180.956573 417.696930,178.741928 417.503174,178.749786 
	C415.760681,178.820496 414.031403,179.269180 412.304443,179.636063 
	C411.843506,179.733994 411.403809,179.932190 410.783203,179.378510 
M261.725159,162.479630 
	C260.886841,170.122116 260.048492,177.764603 259.174530,185.732086 
	C264.241943,185.445847 265.861603,183.100296 265.989655,179.529404 
	C266.114655,176.042664 266.036774,172.547974 266.017273,169.056946 
	C265.998077,165.622665 267.799103,163.616302 271.095215,163.539642 
	C274.415039,163.462463 276.306458,165.463593 276.387604,168.850616 
	C276.471222,172.339920 276.383423,175.833038 276.441254,179.323303 
	C276.499939,182.862762 277.960297,185.214645 282.203888,185.641296 
	C282.203888,180.205597 282.154785,175.066238 282.220703,169.928329 
	C282.266632,166.352036 283.774139,163.471832 287.641266,163.511154 
	C291.432251,163.549683 293.058655,166.216568 292.990692,169.946579 
	C292.933197,173.104187 292.997620,176.263809 292.976135,179.422318 
	C292.950958,183.122345 294.581451,185.279861 298.816162,185.700287 
	C298.816162,179.300064 299.175140,173.155197 298.719757,167.071289 
	C298.219421,160.387177 291.546448,156.144196 284.868408,157.868271 
	C282.871552,158.383759 281.022888,159.473343 279.172363,160.271423 
	C272.039886,156.019852 267.690796,156.434311 261.725159,162.479630 
M345.248016,178.267792 
	C345.248016,169.710968 345.248016,161.154160 345.248016,152.247925 
	C349.415863,152.247925 352.717438,152.200699 356.017090,152.260223 
	C359.895874,152.330185 362.779297,151.343353 362.776733,146.844574 
	C349.003845,146.844574 335.518219,146.844574 321.461639,146.844574 
	C325.280792,156.307327 333.659454,149.945587 339.386719,153.219772 
	C339.386719,161.548523 339.386230,170.157715 339.386963,178.766907 
	C339.387268,182.409500 340.503632,185.176727 345.247681,185.811371 
	C345.247681,183.417175 345.247681,181.303329 345.248016,178.267792 
z"/>
<path fill="#FEFDFD" opacity="1.000000" stroke="none" 
	d="
M489.555115,355.264648 
	C479.971069,387.885590 461.883118,415.356903 437.200745,439.192261 
	C420.092407,427.708527 401.975067,418.404175 382.657867,411.453033 
	C363.252960,404.470306 343.518005,399.677063 322.134827,402.298035 
	C322.134827,393.561768 322.134827,385.661865 322.134827,377.140656 
	C318.678070,377.140656 315.735687,377.140656 312.793304,377.140656 
	C299.635681,377.140686 286.478027,377.123016 273.320435,377.146301 
	C262.961670,377.164673 257.178802,382.900055 257.142151,393.130524 
	C257.132629,395.789154 257.140686,398.447876 257.140686,400.597076 
	C241.279358,405.768311 225.355377,409.944946 210.273361,416.163605 
	C195.298920,422.337891 181.171768,430.567047 166.067703,438.200989 
	C142.449203,415.657623 124.734344,388.156342 114.184174,355.689148 
	C115.257652,355.289856 116.418381,355.168823 117.579102,355.168823 
	C241.414352,355.169342 365.249603,355.178925 489.555115,355.264648 
z"/>
<path fill="#FDFDFD" opacity="1.000000" stroke="none" 
	d="
M91.014481,210.827408 
	C97.172356,197.661285 102.653748,183.716309 110.725739,171.480331 
	C148.604492,114.061630 201.879807,79.724022 269.899261,69.271431 
	C364.938873,54.666615 462.171234,105.396111 505.261139,191.429398 
	C508.309326,197.515427 510.946259,203.807449 513.878662,210.329163 
	C506.003571,210.697601 498.024231,210.740555 489.525970,210.372589 
	C479.559265,189.363098 467.289978,170.560898 451.459900,154.386002 
	C401.735535,103.578674 341.169250,81.644173 270.995972,92.536240 
	C198.615616,103.770905 146.822067,144.613983 115.000740,210.637695 
	C107.177666,210.703766 99.354591,210.769836 91.014481,210.827408 
z"/>
<path fill="#6E777F" opacity="1.000000" stroke="none" 
	d="
M115.440704,210.728561 
	C146.822067,144.613983 198.615616,103.770905 270.995972,92.536240 
	C341.169250,81.644173 401.735535,103.578674 451.459900,154.386002 
	C467.289978,170.560898 479.559265,189.363098 489.072357,210.294754 
	C486.441467,210.700241 483.745270,210.772644 480.625549,210.756775 
	C471.754974,191.573029 459.840973,174.802094 445.503265,159.759171 
	C412.939392,125.593445 373.227081,104.805038 326.364532,99.397461 
	C264.531036,92.262329 210.595459,110.516212 165.212402,153.266983 
	C147.948715,169.529373 134.324814,188.542847 124.062286,210.323181 
	C121.271042,210.704178 118.575859,210.761795 115.440704,210.728561 
z"/>
<path fill="#FDFDFD" opacity="1.000000" stroke="none" 
	d="
M105.352966,355.299683 
	C116.085869,389.435364 134.491608,418.516785 160.215485,443.697845 
	C154.361984,448.475220 148.636353,453.148224 142.401016,458.237244 
	C113.185539,429.480988 92.803864,395.657715 82.017624,355.706268 
	C89.613228,355.303284 97.257034,355.263702 105.352966,355.299683 
z"/>
<path fill="#FDFDFD" opacity="1.000000" stroke="none" 
	d="
M521.694702,355.247101 
	C518.379089,371.577972 511.925995,386.815765 504.186981,401.547760 
	C494.624420,419.751068 482.764648,436.317047 468.559875,451.186157 
	C467.472137,452.324768 466.006409,453.102295 464.353516,453.633698 
	C463.000153,452.148895 462.009644,451.078033 461.019165,450.007141 
	C460.161499,451.375458 459.303802,452.743774 458.446106,454.112061 
	C457.164490,453.520447 455.730438,453.130859 454.629364,452.300049 
	C451.076660,449.619385 447.646515,446.776306 443.905884,443.785370 
	C469.530304,418.854523 487.815948,389.910828 498.360840,355.778992 
	C506.045166,355.336365 513.626953,355.259766 521.694702,355.247101 
z"/>
<path fill="#FEF9F9" opacity="1.000000" stroke="none" 
	d="
M104.819122,267.000305 
	C104.819099,260.215027 104.819099,253.929657 104.819099,247.665482 
	C111.387932,246.303055 116.003189,247.118103 120.101723,253.002716 
	C128.274597,264.737213 137.476807,275.754852 146.257797,287.065582 
	C146.926529,287.926941 147.626541,288.764069 149.127960,290.622375 
	C149.127960,275.451721 149.127960,261.580902 149.127960,247.434265 
	C153.191696,247.434265 156.751541,247.434265 160.582947,247.434265 
	C160.582947,268.744171 160.582947,289.823303 160.582947,311.095581 
	C154.748779,312.423004 150.489868,311.466064 146.580246,306.033173 
	C137.099533,292.858521 126.817429,280.260620 116.154724,266.523956 
	C116.154724,282.071655 116.154724,296.466400 116.154724,311.209290 
	C112.379402,311.209290 108.977669,311.209290 104.819145,311.209290 
	C104.819145,296.648254 104.819145,282.074219 104.819122,267.000305 
z"/>
<path fill="#FEFAFA" opacity="1.000000" stroke="none" 
	d="
M301.914368,275.969360 
	C303.965240,282.269897 305.913239,288.185852 308.259064,295.309814 
	C311.735291,283.754730 314.789185,273.603546 317.901703,263.257507 
	C321.647369,263.257507 325.223816,263.257507 329.225372,263.257507 
	C325.646790,274.358978 322.143066,285.248901 318.623840,296.133850 
	C317.448944,299.767761 315.878906,303.317474 315.132477,307.034790 
	C314.293365,311.213684 312.072662,311.972656 308.164368,312.011475 
	C304.224396,312.050629 302.774933,310.651642 301.720032,307.040894 
	C299.119659,298.140167 296.016510,289.386322 292.723145,279.381622 
	C288.857117,290.973053 285.387543,301.375885 281.973297,311.612732 
	C272.002289,312.251953 271.963684,312.264374 269.170074,303.572388 
	C264.905029,290.302124 260.699554,277.012756 256.332428,263.303375 
	C260.378906,263.303375 263.937744,263.303375 267.888245,263.303375 
	C270.892334,273.404327 273.953430,283.696960 277.411102,295.323059 
	C280.720917,285.032837 283.861176,276.147583 286.366028,267.086670 
	C287.503113,262.973358 289.839233,262.827881 293.272675,262.694183 
	C296.778107,262.557709 298.364410,263.682434 299.071960,267.048401 
	C299.683411,269.957306 300.875885,272.744049 301.914368,275.969360 
z"/>
<path fill="#FEFAFA" opacity="1.000000" stroke="none" 
	d="
M458.786743,293.197815 
	C462.954224,299.220520 466.908630,304.953033 470.924133,310.774109 
	C461.120331,313.122589 458.630402,312.212219 453.329102,304.553406 
	C450.216003,300.055939 447.087677,295.569000 443.271973,290.078339 
	C440.979279,293.768250 438.325928,296.614807 437.388794,299.944397 
	C436.437103,303.325653 437.178589,307.183502 437.178589,311.192810 
	C433.333221,311.192810 429.791443,311.192810 426.032074,311.192810 
	C426.032074,289.071960 426.032074,267.135742 426.032074,244.821625 
	C429.650543,244.821625 433.189240,244.821625 437.245544,244.821625 
	C437.245544,257.501770 437.245544,270.038300 437.245544,283.771973 
	C442.596313,278.087555 447.394867,273.530914 451.526459,268.433716 
	C454.990509,264.160004 458.843872,262.039490 464.339386,262.949310 
	C465.955475,263.216888 467.653381,262.990570 469.715790,262.990570 
	C463.038300,269.014404 456.598938,274.823425 450.159576,280.632416 
	C450.647217,281.328217 451.134857,282.024048 451.622498,282.719849 
	C453.939575,286.115784 456.256622,289.511719 458.786743,293.197815 
z"/>
<path fill="#FEF9F9" opacity="1.000000" stroke="none" 
	d="
M338.287109,304.693573 
	C330.559753,295.107147 329.354675,284.288544 334.729462,274.738739 
	C339.939636,265.481415 350.268188,260.610535 361.478973,262.123840 
	C371.702332,263.503876 379.813660,270.803802 382.420868,280.970917 
	C385.140808,291.577667 380.551361,302.962830 371.255524,308.668762 
	C360.999817,314.963959 348.164520,313.505005 338.287109,304.693573 
M359.095642,271.998230 
	C358.102997,271.973145 357.103180,271.858490 356.118835,271.937195 
	C348.432495,272.551453 343.026672,278.566467 342.851990,286.652954 
	C342.671387,295.013214 347.864136,301.421295 355.622406,302.412140 
	C363.405487,303.406219 369.659973,298.757996 371.433899,290.661346 
	C373.294342,282.169556 368.893097,275.068665 359.095642,271.998230 
z"/>
<path fill="#FEFAFA" opacity="1.000000" stroke="none" 
	d="
M209.115570,266.817261 
	C215.382263,272.434845 217.170258,279.577606 217.846970,287.201782 
	C218.110062,290.165802 217.005981,291.292328 213.883560,291.240936 
	C203.591599,291.071472 193.295090,291.177124 182.647034,291.177124 
	C182.756775,296.348663 185.308655,299.679138 189.355148,301.601532 
	C196.553665,305.021301 202.913239,302.741577 208.887650,297.489044 
	C211.039078,299.341003 213.131287,301.141968 215.173035,302.899536 
	C209.640610,312.829132 192.469910,315.547913 181.657608,308.610016 
	C170.304962,301.325348 167.178360,284.196045 175.066742,272.262299 
	C182.506485,261.007294 196.819794,258.605408 209.115570,266.817261 
M206.093094,282.679077 
	C204.801117,275.281403 200.307281,270.976532 194.060181,271.152130 
	C187.715546,271.330444 183.072021,276.297791 182.439026,283.498901 
	C190.216293,283.498901 198.000687,283.498901 206.093094,282.679077 
z"/>
<path fill="#FEF6F5" opacity="1.000000" stroke="none" 
	d="
M238.565552,252.372345 
	C238.573257,255.993454 238.573257,259.151855 238.573257,262.820251 
	C242.863098,262.820251 246.938492,262.820251 251.290802,262.820251 
	C251.290802,266.252747 251.290802,269.178711 251.290802,272.727905 
	C247.190598,272.727905 243.139771,272.727905 238.663834,272.727905 
	C238.663834,281.274933 238.551895,289.216034 238.715927,297.151428 
	C238.786972,300.588593 241.024826,302.188171 244.402374,301.953064 
	C246.512329,301.806183 248.605118,301.412872 250.704758,301.130219 
	C251.965561,309.323822 251.523010,310.442596 246.548691,311.674744 
	C238.017319,313.787933 230.337265,311.044952 228.257660,304.774017 
	C227.389328,302.155579 227.235214,299.222992 227.184769,296.425507 
	C227.047073,288.789093 227.137390,281.148590 227.137390,273.155853 
	C225.125702,272.977173 223.383331,272.822418 221.315094,272.638702 
	C221.315094,269.526642 221.315094,266.476105 221.315094,263.113251 
	C223.140717,263.026978 224.900040,262.943848 227.114044,262.839203 
	C227.114044,258.523987 227.114044,254.442398 227.114044,249.826111 
	C230.523895,249.826111 233.481995,249.685760 236.409805,249.921463 
	C237.174210,249.983002 237.844391,251.215118 238.565552,252.372345 
z"/>
<path fill="#FEF9F9" opacity="1.000000" stroke="none" 
	d="
M489.148438,290.095032 
	C489.148468,287.988953 489.148468,286.362274 489.148468,284.307037 
	C483.308014,284.307037 477.892395,284.307037 472.152069,284.307037 
	C472.152069,280.815277 472.152069,277.738922 472.152069,274.112366 
	C477.546753,274.112366 483.107239,274.112366 489.009644,274.112366 
	C489.009644,268.161041 489.009644,262.731537 489.009644,256.874634 
	C492.721039,256.874634 496.080994,256.874634 499.931915,256.874634 
	C499.931915,262.405121 499.931915,267.965240 499.931915,273.978882 
	C505.955658,273.978882 511.524750,273.978882 517.303345,273.978882 
	C517.303345,277.531403 517.303345,280.612946 517.303345,284.056091 
	C511.625000,284.056091 506.192993,284.056091 500.292847,284.056091 
	C500.292847,289.963562 500.292847,295.529358 500.292847,301.472839 
	C496.463684,301.472839 493.101318,301.472839 489.148438,301.472839 
	C489.148438,297.790527 489.148438,294.182495 489.148438,290.095032 
z"/>
<path fill="#FDF2F2" opacity="1.000000" stroke="none" 
	d="
M419.873016,269.792603 
	C419.796448,271.386749 419.719971,272.529510 419.646240,273.631134 
	C407.536011,275.439575 402.951050,280.809753 402.879211,293.141327 
	C402.844543,299.095123 402.873230,305.049255 402.873230,311.294556 
	C398.993073,311.294556 395.569885,311.294556 391.407806,311.294556 
	C391.407806,303.317810 391.407806,295.392303 391.407806,287.466827 
	C391.407806,279.501160 391.407806,271.535492 391.407806,263.273376 
	C395.351044,263.273376 398.896301,263.273376 402.894043,263.273376 
	C402.894043,265.856049 402.894043,268.231018 402.894043,271.907104 
	C407.481354,265.446686 412.117615,261.288635 419.873077,262.275726 
	C419.873077,264.744598 419.873077,267.042908 419.873016,269.792603 
z"/>
<path fill="#FEFEFE" opacity="1.000000" stroke="none" 
	d="
M363.846252,482.866638 
	C293.556091,504.254578 230.636414,490.665253 173.662842,445.564148 
	C183.927521,434.133911 229.476120,414.927460 256.917847,410.294006 
	C256.917847,420.706970 256.917847,431.046082 256.917847,441.903748 
	C265.448700,441.903748 273.348846,441.903748 281.734985,441.903748 
	C281.734985,450.343414 281.734985,458.264099 281.734985,466.859070 
	C283.993622,466.859070 285.763123,466.859039 287.532623,466.859039 
	C301.191071,466.859039 314.849487,466.863678 328.507935,466.857849 
	C341.979980,466.852081 346.617859,462.270660 346.619720,448.980164 
	C346.621552,436.188782 346.620117,423.397400 346.620117,410.600891 
	C365.199432,411.029999 415.009399,431.450165 430.496185,445.005066 
	C410.857880,462.066620 388.694519,474.401123 363.846252,482.866638 
z"/>
<path fill="#FBFBFB" opacity="1.000000" stroke="none" 
	d="
M338.854065,420.051788 
	C338.853729,430.857697 338.846680,441.172668 338.856415,451.487671 
	C338.860443,455.769928 337.066498,458.749054 332.532867,458.793732 
	C318.413330,458.932892 304.291595,458.844757 289.774780,458.844757 
	C289.774780,453.252014 289.774780,448.014923 289.774780,442.233093 
	C300.246643,442.233093 310.788177,442.233093 321.827942,442.233093 
	C321.827942,431.151245 321.827942,420.586578 321.827942,409.703613 
	C327.568115,409.703613 332.806824,409.703613 338.854126,409.703613 
	C338.854126,413.068085 338.854126,416.314484 338.854065,420.051788 
z"/>
<path fill="#FDFDFD" opacity="1.000000" stroke="none" 
	d="
M305.930206,401.844177 
	C297.810669,401.844116 290.180023,401.844116 282.018616,401.844116 
	C282.018616,412.583435 282.018616,422.978760 282.018616,433.752808 
	C276.259705,433.752808 271.024902,433.752808 265.005096,433.752808 
	C265.005096,430.863892 265.004974,427.778442 265.005127,424.692963 
	C265.005585,414.040588 265.028534,403.388184 264.995789,392.735901 
	C264.982483,388.407532 267.075012,385.272095 271.275665,385.180756 
	C285.375000,384.874329 299.485077,385.064331 313.864990,385.064331 
	C313.864990,390.707458 313.864990,395.946899 313.864990,401.844269 
	C311.295929,401.844269 308.857513,401.844269 305.930206,401.844177 
z"/>
<path fill="#F9FAFA" opacity="1.000000" stroke="none" 
	d="
M308.904694,434.156860 
	C302.279449,434.156982 296.145599,434.156982 289.384918,434.156982 
	C289.384918,426.501770 289.288361,419.226959 289.509552,411.961823 
	C289.536591,411.073486 291.246216,409.519836 292.212372,409.491058 
	C299.322235,409.279053 306.441284,409.376526 313.852295,409.376526 
	C313.852295,417.764069 313.852295,425.647400 313.852295,433.860535 
	C312.281403,433.964935 310.838745,434.060852 308.904694,434.156860 
z"/>
<path fill="#899197" opacity="1.000000" stroke="none" 
	d="
M458.749359,454.197083 
	C459.303802,452.743774 460.161499,451.375458 461.019165,450.007141 
	C462.009644,451.078033 463.000153,452.148895 463.992218,453.625061 
	C463.143219,455.490417 462.292664,456.950531 461.151733,458.909149 
	C460.299591,457.030731 459.676117,455.656403 458.749359,454.197083 
z"/>
<path fill="#FEF6F5" opacity="1.000000" stroke="none" 
	d="
M228.481598,507.936279 
	C229.878952,513.664978 227.646896,515.905640 222.594528,514.347168 
	C220.560013,513.719604 218.580719,512.912903 216.064133,512.002441 
	C217.093018,509.226471 218.027405,506.705475 219.245605,503.418762 
	C222.421143,504.921112 225.306732,506.286255 228.481598,507.936279 
z"/>
<path fill="#FEF6F5" opacity="1.000000" stroke="none" 
	d="
M347.894348,529.977417 
	C346.846680,525.244446 345.861023,520.913635 344.888641,516.641235 
	C353.940887,512.096863 361.737549,515.949097 361.293304,524.533447 
	C361.034454,529.536072 354.153809,535.035278 349.646515,533.584961 
	C348.824463,533.320435 348.506836,531.488159 347.894348,529.977417 
z"/>
<path fill="#E32A26" opacity="1.000000" stroke="none" 
	d="
M372.128693,185.497208 
	C377.432526,173.530655 382.640686,161.519562 388.163818,149.655106 
	C388.838470,148.205841 391.340881,146.566818 392.749573,146.765427 
	C394.478516,147.009155 396.611603,148.770920 397.420166,150.435104 
	C402.063110,159.991257 406.365387,169.712952 410.851440,179.995026 
	C411.354034,181.314423 411.788361,182.017288 412.222687,182.720154 
	C411.809937,183.620789 411.397186,184.521423 410.984467,185.422073 
	C408.850739,183.637497 406.041901,182.237320 404.752106,179.972183 
	C403.095154,177.062286 401.597107,175.306137 398.021698,175.798706 
	C395.744507,176.112427 393.375549,176.017517 391.071259,175.824936 
	C385.852478,175.388779 381.507568,175.653702 379.652618,182.089508 
	C379.148926,183.837143 375.163361,184.581238 372.428467,185.629181 
	C372.081085,185.472427 372.128693,185.497208 372.128693,185.497208 
M388.581421,163.079666 
	C387.617279,165.220367 386.653137,167.361069 385.583130,169.736755 
	C390.774750,169.736755 395.128937,169.736755 399.956116,169.736755 
	C397.527313,164.478333 395.285187,159.624023 392.695496,154.017288 
	C391.177368,157.360245 390.037628,159.869934 388.581421,163.079666 
z"/>
<path fill="#E32C27" opacity="1.000000" stroke="none" 
	d="
M261.933044,162.152466 
	C267.690796,156.434311 272.039886,156.019852 279.172363,160.271423 
	C281.022888,159.473343 282.871552,158.383759 284.868408,157.868271 
	C291.546448,156.144196 298.219421,160.387177 298.719757,167.071289 
	C299.175140,173.155197 298.816162,179.300064 298.816162,185.700287 
	C294.581451,185.279861 292.950958,183.122345 292.976135,179.422318 
	C292.997620,176.263809 292.933197,173.104187 292.990692,169.946579 
	C293.058655,166.216568 291.432251,163.549683 287.641266,163.511154 
	C283.774139,163.471832 282.266632,166.352036 282.220703,169.928329 
	C282.154785,175.066238 282.203888,180.205597 282.203888,185.641296 
	C277.960297,185.214645 276.499939,182.862762 276.441254,179.323303 
	C276.383423,175.833038 276.471222,172.339920 276.387604,168.850616 
	C276.306458,165.463593 274.415039,163.462463 271.095215,163.539642 
	C267.799103,163.616302 265.998077,165.622665 266.017273,169.056946 
	C266.036774,172.547974 266.114655,176.042664 265.989655,179.529404 
	C265.861603,183.100296 264.241943,185.445847 259.174530,185.732086 
	C260.048492,177.764603 260.886841,170.122116 261.933044,162.152466 
z"/>
<path fill="#E32C28" opacity="1.000000" stroke="none" 
	d="
M226.867157,174.905914 
	C226.339432,176.201324 226.121964,177.783264 225.233368,178.745377 
	C219.720215,184.714523 212.736145,186.855835 204.850266,185.535019 
	C196.900040,184.203430 190.964645,179.862854 188.221054,172.112595 
	C185.580902,164.654587 187.399490,157.862976 193.018494,152.438156 
	C199.738602,145.950302 207.848068,144.545883 216.599762,147.524734 
	C221.766632,149.283386 225.887573,152.455673 228.147507,157.843964 
	C225.049881,160.041641 222.762985,158.822800 220.511017,156.758133 
	C216.336014,152.930435 211.389236,151.260056 205.787277,152.212128 
	C197.374527,153.641907 191.609680,161.284576 193.253708,168.559616 
	C195.077759,176.631271 204.442551,181.939346 212.840759,179.497116 
	C214.878937,178.904404 216.661880,177.453568 218.693298,176.813248 
	C221.096405,176.055786 223.641571,175.749008 226.517014,175.094391 
	C226.908859,174.941895 226.867157,174.905914 226.867157,174.905914 
z"/>
<path fill="#E42E29" opacity="1.000000" stroke="none" 
	d="
M307.861450,182.060165 
	C307.725433,184.542435 308.039948,187.163330 307.330505,189.469147 
	C306.575989,191.921402 304.851288,194.075150 303.550201,196.359238 
	C303.048676,196.109528 302.547150,195.859818 302.045624,195.610107 
	C302.045624,186.237076 301.225861,176.768570 302.302734,167.520935 
	C303.178040,160.004089 312.685791,155.829330 321.037903,157.899704 
	C328.671539,159.791977 333.408722,167.102203 331.839630,174.568405 
	C330.305908,181.866287 322.423279,187.112045 314.701416,185.620377 
	C312.757965,185.244949 311.049347,183.654144 309.060242,181.894806 
	C308.987671,180.069946 309.087646,178.972183 309.195618,177.786896 
	C311.180420,178.481689 312.850494,179.277771 314.610016,179.642929 
	C320.075623,180.777206 325.371857,177.471069 326.005920,172.680222 
	C326.617279,168.060806 322.897705,163.798309 317.775055,163.247955 
	C312.363983,162.666595 307.733490,166.311676 307.511230,171.649918 
	C307.367249,175.109146 307.727264,178.589355 307.861450,182.060165 
z"/>
<path fill="#E53430" opacity="1.000000" stroke="none" 
	d="
M345.247864,178.728638 
	C345.247681,181.303329 345.247681,183.417175 345.247681,185.811371 
	C340.503632,185.176727 339.387268,182.409500 339.386963,178.766907 
	C339.386230,170.157715 339.386719,161.548523 339.386719,153.219772 
	C333.659454,149.945587 325.280792,156.307327 321.461639,146.844574 
	C335.518219,146.844574 349.003845,146.844574 362.776733,146.844574 
	C362.779297,151.343353 359.895874,152.330185 356.017090,152.260223 
	C352.717438,152.200699 349.415863,152.247925 345.248016,152.247925 
	C345.248016,161.154160 345.248016,169.710968 345.247864,178.728638 
z"/>
<path fill="#E32B26" opacity="1.000000" stroke="none" 
	d="
M226.925201,174.964050 
	C227.665924,171.678070 227.802612,168.085861 229.236084,165.120529 
	C232.284378,158.814728 240.215973,156.072220 247.784164,158.047623 
	C254.329010,159.755920 258.905762,165.412735 258.855133,171.731293 
	C258.805450,177.927536 254.522659,183.225296 248.069397,185.073044 
	C240.629654,187.203247 232.792450,184.490036 229.257889,178.491852 
	C228.588837,177.356461 228.175140,176.070587 227.255386,174.880035 
	C226.867157,174.905914 226.908859,174.941895 226.925201,174.964050 
M234.699875,175.730835 
	C237.710464,179.587982 241.660751,180.661484 246.235336,179.371582 
	C251.375565,177.922226 254.013184,173.420944 252.385269,169.195648 
	C250.599213,164.559937 244.588257,162.179138 239.362183,164.037537 
	C234.390839,165.805359 232.633835,169.637756 234.699875,175.730835 
z"/>
<path fill="#FDF1F0" opacity="1.000000" stroke="none" 
	d="
M308.025085,182.054871 
	C307.727264,178.589355 307.367249,175.109146 307.511230,171.649918 
	C307.733490,166.311676 312.363983,162.666595 317.775055,163.247955 
	C322.897705,163.798309 326.617279,168.060806 326.005920,172.680222 
	C325.371857,177.471069 320.075623,180.777206 314.610016,179.642929 
	C312.850494,179.277771 311.180420,178.481689 309.195618,177.786896 
	C309.087646,178.972183 308.987671,180.069946 308.864990,181.590240 
	C308.623871,182.015015 308.406006,182.027283 308.025085,182.054871 
z"/>
<path fill="#E6403B" opacity="1.000000" stroke="none" 
	d="
M371.652100,185.351547 
	C372.128693,185.497208 372.081085,185.472427 372.093689,185.453613 
	C366.974182,185.842468 364.557098,184.327301 364.456146,179.667419 
	C364.219971,168.766922 364.380707,157.857834 364.380707,146.579514 
	C369.153473,146.944016 370.675598,149.490936 370.668823,153.467270 
	C370.653839,162.252487 370.636871,171.037918 370.688232,179.822861 
	C370.698730,181.618088 371.005402,183.411591 371.652100,185.351547 
z"/>
<path fill="#EB6461" opacity="1.000000" stroke="none" 
	d="
M412.576508,182.941299 
	C411.788361,182.017288 411.354034,181.314423 410.937012,180.347946 
	C411.403809,179.932190 411.843506,179.733994 412.304443,179.636063 
	C414.031403,179.269180 415.760681,178.820496 417.503174,178.749786 
	C417.696930,178.741928 417.980865,180.956573 418.222961,182.140503 
	C416.458740,182.481155 414.694550,182.821808 412.576508,182.941299 
z"/>
<path fill="#E2241F" opacity="1.000000" stroke="none" 
	d="
M359.507324,272.040894 
	C368.893097,275.068665 373.294342,282.169556 371.433899,290.661346 
	C369.659973,298.757996 363.405487,303.406219 355.622406,302.412140 
	C347.864136,301.421295 342.671387,295.013214 342.851990,286.652954 
	C343.026672,278.566467 348.432495,272.551453 356.118835,271.937195 
	C357.103180,271.858490 358.102997,271.973145 359.507324,272.040894 
z"/>
<path fill="#E32C27" opacity="1.000000" stroke="none" 
	d="
M205.939087,283.088989 
	C198.000687,283.498901 190.216293,283.498901 182.439026,283.498901 
	C183.072021,276.297791 187.715546,271.330444 194.060181,271.152130 
	C200.307281,270.976532 204.801117,275.281403 205.939087,283.088989 
z"/>
<path fill="#FEF6F5" opacity="1.000000" stroke="none" 
	d="
M388.739685,162.729645 
	C390.037628,159.869934 391.177368,157.360245 392.695496,154.017288 
	C395.285187,159.624023 397.527313,164.478333 399.956116,169.736755 
	C395.128937,169.736755 390.774750,169.736755 385.583130,169.736755 
	C386.653137,167.361069 387.617279,165.220367 388.739685,162.729645 
z"/>
<path fill="#FEF6F5" opacity="1.000000" stroke="none" 
	d="
M234.492203,175.421906 
	C232.633835,169.637756 234.390839,165.805359 239.362183,164.037537 
	C244.588257,162.179138 250.599213,164.559937 252.385269,169.195648 
	C254.013184,173.420944 251.375565,177.922226 246.235336,179.371582 
	C241.660751,180.661484 237.710464,179.587982 234.492203,175.421906 
z"/>
</svg>