<svg width="256" height="256" viewBox="0 0 256 256" fill="none" xmlns="http://www.w3.org/2000/svg">
<path d="M233.3 9.65997H22.7202C15.5073 9.65997 9.66016 15.5071 9.66016 22.72V233.3C9.66016 240.513 15.5073 246.36 22.7202 246.36H233.3C240.513 246.36 246.36 240.513 246.36 233.3V22.72C246.36 15.5071 240.513 9.65997 233.3 9.65997Z" fill="#3D5A98"/>
<path d="M172.96 246.34V154.68H203.72L208.32 118.96H172.96V96.16C172.96 85.82 175.84 78.76 190.66 78.76H209.58V46.76C200.419 45.8051 191.211 45.3511 182 45.4C154.76 45.4 136 62 136 92.62V118.96H105.24V154.68H136V246.34H172.96Z" fill="white"/>
</svg>
