<svg width="256" height="256" viewBox="0 0 256 256" fill="none" xmlns="http://www.w3.org/2000/svg">
<g clip-path="url(#clip0_91_80)">
<path d="M196 0H60C26.8629 0 0 26.8629 0 60V196C0 229.137 26.8629 256 60 256H196C229.137 256 256 229.137 256 196V60C256 26.8629 229.137 0 196 0Z" fill="#F03C2E"/>
<mask id="mask0_91_80" style="mask-type:luminance" maskUnits="userSpaceOnUse" x="28" y="28" width="200" height="200">
<path d="M28 28H228V228H28V28Z" fill="white"/>
</mask>
<g mask="url(#mask0_91_80)">
<path d="M224.226 119.094L136.907 31.775C135.106 29.9726 132.812 28.745 130.313 28.2478C127.815 27.7506 125.225 28.0061 122.872 28.982C121.309 29.6295 119.89 30.5786 118.695 31.775L100.57 49.9L123.57 72.9C128.92 71.025 135.045 72.306 139.307 76.569C141.336 78.6017 142.752 81.1641 143.394 83.9634C144.036 86.7628 143.878 89.6862 142.938 92.4L165.107 114.569C170.47 112.719 176.657 113.912 180.938 118.206C183.082 120.35 184.542 123.081 185.134 126.055C185.725 129.029 185.42 132.111 184.259 134.912C182.702 138.667 179.717 141.65 175.961 143.205C172.205 144.76 167.986 144.76 164.23 143.205C162.37 142.434 160.68 141.305 159.257 139.881C154.757 135.381 153.645 128.756 155.92 123.212L135.245 102.537V156.944C136.746 157.686 138.117 158.666 139.307 159.844C142.181 162.718 143.796 166.617 143.796 170.682C143.796 174.746 142.181 178.645 139.307 181.519C136.432 184.393 132.534 186.008 128.469 186.008C124.404 186.008 120.506 184.393 117.632 181.519C115.486 179.376 114.025 176.645 113.433 173.672C112.841 170.698 113.145 167.616 114.306 164.815C115.076 162.955 116.207 161.266 117.632 159.844C119.113 158.369 120.757 157.25 122.651 156.5V101.587C120.771 100.819 119.065 99.682 117.632 98.244C115.48 96.0943 114.017 93.3526 113.429 90.3682C112.841 87.3838 113.156 84.2921 114.332 81.487L91.6447 58.814L31.7697 118.626C29.9672 120.427 28.7395 122.723 28.242 125.222C27.7445 127.721 27.9995 130.312 28.9747 132.666C29.6228 134.229 30.5726 135.649 31.7697 136.845L119.095 224.157C120.29 225.353 121.71 226.302 123.272 226.95C126.428 228.256 129.974 228.256 133.13 226.95C134.692 226.302 136.111 225.353 137.307 224.157L224.226 137.376C225.422 136.18 226.372 134.76 227.02 133.197C227.668 131.634 228.001 129.959 228.002 128.267C228.002 126.575 227.668 124.899 227.02 123.336C226.373 121.773 225.423 120.353 224.226 119.157" fill="white"/>
</g>
</g>
<defs>
<clipPath id="clip0_91_80">
<rect width="256" height="256" fill="white"/>
</clipPath>
</defs>
</svg>
