<svg width="264" height="264" viewBox="0 0 264 264" fill="none" xmlns="http://www.w3.org/2000/svg">
<g clip-path="url(#clip0_91_79)" filter="url(#filter0_d_91_79)">
<path d="M200 0H64C30.8629 0 4 26.8629 4 60V196C4 229.137 30.8629 256 64 256H200C233.137 256 260 229.137 260 196V60C260 26.8629 233.137 0 200 0Z" fill="#F4F2ED"/>
<path d="M132.001 30C76.779 30 32 74.77 32 130.001C32 174.184 60.653 211.668 100.387 224.891C105.384 225.817 107.219 222.722 107.219 220.081C107.219 217.696 107.126 209.819 107.083 201.463C79.263 207.512 73.393 189.664 73.393 189.664C68.843 178.105 62.289 175.032 62.289 175.032C53.216 168.825 62.973 168.953 62.973 168.953C73.015 169.658 78.303 179.258 78.303 179.258C87.222 194.546 101.697 190.126 107.403 187.571C108.301 181.107 110.892 176.696 113.752 174.199C91.541 171.67 68.192 163.095 68.192 124.778C68.192 113.86 72.098 104.939 78.495 97.936C77.456 95.417 74.033 85.246 79.463 71.472C79.463 71.472 87.861 68.785 106.971 81.722C114.948 79.507 123.502 78.396 132.001 78.358C140.499 78.396 149.061 79.507 157.052 81.723C176.139 68.784 184.525 71.473 184.525 71.473C189.968 85.246 186.544 95.418 185.505 97.936C191.917 104.939 195.797 113.86 195.797 124.778C195.797 163.187 172.403 171.644 150.135 174.119C153.722 177.223 156.918 183.308 156.918 192.638C156.918 206.018 156.802 216.787 156.802 220.081C156.802 222.742 158.602 225.86 163.671 224.878C203.383 211.64 232 174.169 232 130.001C232 74.771 187.227 30 132.001 30ZM69.454 172.453C69.234 172.95 68.452 173.099 67.74 172.758C67.014 172.432 66.607 171.754 66.842 171.256C67.057 170.744 67.841 170.602 68.564 170.945C69.291 171.271 69.705 171.955 69.454 172.453ZM74.373 176.842C73.896 177.285 72.963 177.079 72.331 176.38C71.677 175.683 71.554 174.751 72.038 174.302C72.529 173.86 73.434 174.067 74.089 174.764C74.743 175.47 74.871 176.395 74.373 176.842ZM77.747 182.458C77.134 182.884 76.132 182.485 75.513 181.595C74.9 180.706 74.9 179.64 75.526 179.212C76.147 178.785 77.134 179.169 77.762 180.052C78.373 180.956 78.373 182.023 77.747 182.458ZM83.454 188.962C82.906 189.566 81.739 189.404 80.884 188.579C80.01 187.773 79.766 186.629 80.316 186.024C80.871 185.418 82.045 185.589 82.906 186.407C83.774 187.211 84.039 188.364 83.454 188.962ZM90.83 191.157C90.588 191.941 89.464 192.297 88.331 191.964C87.201 191.621 86.46 190.704 86.689 189.912C86.924 189.124 88.053 188.753 89.194 189.109C90.324 189.45 91.065 190.361 90.83 191.157ZM99.224 192.089C99.252 192.913 98.292 193.597 97.103 193.612C95.907 193.639 94.94 192.971 94.927 192.16C94.927 191.327 95.866 190.65 97.061 190.63C98.251 190.607 99.224 191.269 99.224 192.089ZM107.47 191.773C107.613 192.577 106.787 193.404 105.606 193.624C104.445 193.836 103.37 193.339 103.223 192.541C103.079 191.716 103.92 190.89 105.079 190.676C106.262 190.471 107.32 190.955 107.47 191.773Z" fill="#161614"/>
</g>
<defs>
<filter id="filter0_d_91_79" x="0" y="0" width="264" height="264" filterUnits="userSpaceOnUse" color-interpolation-filters="sRGB">
<feFlood flood-opacity="0" result="BackgroundImageFix"/>
<feColorMatrix in="SourceAlpha" type="matrix" values="0 0 0 0 0 0 0 0 0 0 0 0 0 0 0 0 0 0 127 0" result="hardAlpha"/>
<feOffset dy="4"/>
<feGaussianBlur stdDeviation="2"/>
<feComposite in2="hardAlpha" operator="out"/>
<feColorMatrix type="matrix" values="0 0 0 0 0 0 0 0 0 0 0 0 0 0 0 0 0 0 0.25 0"/>
<feBlend mode="normal" in2="BackgroundImageFix" result="effect1_dropShadow_91_79"/>
<feBlend mode="normal" in="SourceGraphic" in2="effect1_dropShadow_91_79" result="shape"/>
</filter>
<clipPath id="clip0_91_79">
<rect width="256" height="256" fill="white" transform="translate(4)"/>
</clipPath>
</defs>
</svg>
