<svg width="256" height="256" viewBox="0 0 256 256" fill="none" xmlns="http://www.w3.org/2000/svg">
<g clip-path="url(#clip0_91_73)">
<path d="M53.172 0C38.565 0 27.756 16.0439 28.24 33.4431C28.705 50.1584 28.101 71.8093 23.758 89.4645C19.402 107.171 12.034 118.387 0 119.828V136.087C12.034 137.527 19.402 148.744 23.758 166.451C28.101 184.107 28.705 205.755 28.24 222.472C27.756 239.868 38.565 255.915 53.174 255.915H202.847C217.455 255.915 228.261 239.871 227.777 222.472C227.313 205.756 227.916 184.107 232.259 166.451C236.618 148.745 243.966 137.526 256 136.087V119.828C243.966 118.387 236.618 107.171 232.26 89.4645C227.916 71.8118 227.313 50.1597 227.777 33.4431C228.261 16.0464 217.455 0 202.847 0H53.17H53.172ZM173.56 157.532C173.56 181.49 159.32 196.019 135.688 196.019H95.458C94.3074 196.019 93.204 195.445 92.3905 194.424C91.577 193.403 91.12 192.018 91.12 190.574V65.3402C91.1199 64.6251 91.232 63.9169 91.45 63.2561C91.668 62.5954 91.9876 61.995 92.3905 61.4892C92.7934 60.9835 93.2718 60.5823 93.7983 60.3086C94.3248 60.0348 94.8891 59.894 95.459 59.894H135.458C155.163 59.894 168.095 73.29 168.095 93.8554C168.095 108.291 159.395 121.213 148.312 123.476V124.23C163.401 126.307 173.56 139.42 173.56 157.532ZM131.3 77.1551H108.363V117.814H127.683C142.617 117.814 150.853 110.267 150.853 96.7768C150.853 84.1362 143.77 77.1551 131.3 77.1551ZM108.364 133.947V178.753H132.146C147.694 178.753 155.932 170.924 155.932 156.209C155.932 141.491 147.465 133.944 131.146 133.944H108.364V133.947Z" fill="#7E13F8"/>
</g>
<defs>
<clipPath id="clip0_91_73">
<rect width="256" height="256" fill="white"/>
</clipPath>
</defs>
</svg>
