<svg width="256" height="256" viewBox="0 0 256 256" fill="none" xmlns="http://www.w3.org/2000/svg">
<g clip-path="url(#clip0_91_82)">
<path d="M196 0H60C26.8629 0 0 26.8629 0 60V196C0 229.137 26.8629 256 60 256H196C229.137 256 256 229.137 256 196V60C256 26.8629 229.137 0 196 0Z" fill="#242938"/>
<path d="M172.787 97.405L172.714 97.374C172.673 97.358 172.631 97.343 172.594 97.306C172.534 97.242 172.489 97.1649 172.464 97.0807C172.438 96.9965 172.433 96.9076 172.448 96.821L176.48 72.17L195.389 91.083L175.724 99.45C175.669 99.4719 175.611 99.4824 175.552 99.481H175.474C175.435 99.4563 175.4 99.4267 175.369 99.393C174.637 98.578 173.762 97.9042 172.787 97.405ZM200.213 95.903L220.431 116.12C224.63 120.325 226.732 122.421 227.499 124.852C227.613 125.212 227.707 125.572 227.78 125.942L179.464 105.48L179.386 105.448C179.193 105.37 178.968 105.281 178.968 105.083C178.968 104.885 179.198 104.791 179.391 104.713L179.453 104.687L200.213 95.903ZM226.956 132.431C225.913 134.392 223.879 136.427 220.436 139.874L197.642 162.663L168.161 156.524L168.004 156.493C167.743 156.451 167.467 156.404 167.467 156.169C167.355 154.953 166.994 153.773 166.406 152.703C165.818 151.632 165.016 150.694 164.05 149.947C163.93 149.827 163.962 149.639 163.998 149.467C163.998 149.441 163.998 149.415 164.009 149.394L169.553 115.354L169.574 115.239C169.606 114.978 169.652 114.676 169.887 114.676C171.075 114.528 172.222 114.145 173.261 113.55C174.3 112.954 175.21 112.158 175.938 111.207C175.985 111.155 176.016 111.097 176.079 111.066C176.246 110.988 176.444 111.066 176.616 111.139L226.951 132.431H226.956ZM192.4 167.905L154.917 205.388L161.333 165.955L161.343 165.902C161.348 165.851 161.359 165.8 161.375 165.751C161.427 165.626 161.562 165.574 161.693 165.522L161.755 165.496C163.16 164.896 164.403 163.972 165.381 162.799C165.506 162.653 165.657 162.512 165.85 162.486C165.9 162.478 165.951 162.478 166.001 162.486L192.394 167.911L192.4 167.905ZM146.983 213.322L142.758 217.547L96.048 150.04L95.996 149.967C95.924 149.868 95.846 149.769 95.861 149.654C95.866 149.571 95.918 149.498 95.976 149.435L96.028 149.368C96.168 149.159 96.288 148.95 96.419 148.726L96.523 148.543L96.539 148.528C96.612 148.403 96.679 148.283 96.805 148.215C96.915 148.163 97.065 148.184 97.185 148.21L148.934 158.882C149.079 158.904 149.216 158.963 149.331 159.054C149.399 159.122 149.414 159.195 149.43 159.278C149.791 160.644 150.463 161.908 151.393 162.971C152.323 164.034 153.486 164.868 154.792 165.407C154.938 165.48 154.875 165.642 154.808 165.814C154.774 165.889 154.748 165.968 154.729 166.049C154.077 170.013 148.486 204.115 146.983 213.322ZM138.158 222.142C135.044 225.225 133.208 226.857 131.132 227.515C129.085 228.162 126.888 228.162 124.841 227.515C122.411 226.743 120.309 224.646 116.11 220.442L69.202 173.534L81.454 154.531C81.5061 154.436 81.5773 154.352 81.663 154.286C81.793 154.192 81.981 154.234 82.138 154.286C84.95 155.135 87.969 154.982 90.681 153.853C90.822 153.801 90.963 153.765 91.073 153.864C91.127 153.914 91.176 153.97 91.219 154.031L138.158 222.147V222.142ZM64.679 169.011L53.919 158.251L75.169 149.185C75.2232 149.161 75.2818 149.149 75.341 149.149C75.518 149.149 75.623 149.326 75.717 149.488C75.93 149.816 76.157 150.136 76.395 150.447L76.462 150.531C76.525 150.619 76.483 150.708 76.421 150.792L64.684 169.011H64.679ZM49.156 153.488L35.542 139.874C33.227 137.558 31.547 135.879 30.378 134.434L71.773 143.02L71.93 143.046C72.185 143.087 72.467 143.134 72.467 143.374C72.467 143.635 72.159 143.755 71.898 143.854L71.778 143.906L49.156 153.488ZM28 127.434C28.0474 126.557 28.2053 125.689 28.47 124.852C29.241 122.421 31.338 120.325 35.542 116.12L52.964 98.699C60.9858 110.341 69.0292 121.967 77.094 133.579C77.234 133.766 77.391 133.975 77.229 134.131C76.468 134.971 75.706 135.889 75.169 136.886C75.1107 137.014 75.0209 137.125 74.908 137.209C74.84 137.251 74.768 137.235 74.688 137.219H74.678L28 127.429V127.434ZM57.627 94.036L81.052 70.61C83.254 71.575 91.266 74.96 98.432 77.986C103.857 80.281 108.802 82.367 110.356 83.046C110.513 83.108 110.654 83.171 110.721 83.327C110.763 83.421 110.742 83.541 110.721 83.64C110.351 85.331 110.407 87.0872 110.883 88.7514C111.359 90.4155 112.241 91.9355 113.449 93.175C113.606 93.332 113.449 93.555 113.314 93.749L113.241 93.859L89.456 130.699C89.4033 130.803 89.326 130.893 89.231 130.96C89.106 131.038 88.929 131.002 88.783 130.965C87.8576 130.723 86.9064 130.593 85.95 130.579C85.095 130.579 84.166 130.736 83.228 130.908H83.222C83.118 130.924 83.024 130.944 82.941 130.882C82.8486 130.807 82.7692 130.717 82.706 130.616L57.627 94.036ZM85.784 65.879L116.11 35.553C120.309 31.354 122.411 29.253 124.841 28.485C126.888 27.8378 129.085 27.8378 131.132 28.485C133.563 29.252 135.665 31.355 139.864 35.553L146.436 42.125L124.867 75.529C124.814 75.626 124.741 75.7111 124.654 75.779C124.523 75.869 124.341 75.832 124.184 75.779C122.483 75.2629 120.683 75.1689 118.938 75.5052C117.193 75.8415 115.556 76.5979 114.169 77.709C114.028 77.855 113.82 77.772 113.642 77.694C110.826 76.468 88.918 67.21 85.784 65.879ZM151.016 46.705L170.93 66.62L166.132 96.341V96.419C166.127 96.4869 166.113 96.5539 166.09 96.618C166.038 96.722 165.933 96.743 165.829 96.774C164.803 97.0847 163.837 97.5661 162.971 98.198C162.934 98.2246 162.898 98.2544 162.866 98.287C162.809 98.349 162.752 98.407 162.658 98.417C162.581 98.4196 162.505 98.4073 162.433 98.381L132.086 85.487L132.029 85.46C131.836 85.382 131.607 85.288 131.607 85.09C131.428 83.3988 130.876 81.7686 129.99 80.317C129.844 80.077 129.682 79.827 129.807 79.582L151.016 46.705ZM130.506 91.595L158.954 103.644C159.111 103.717 159.283 103.784 159.351 103.946C159.378 104.043 159.378 104.146 159.351 104.243C159.254 104.694 159.201 105.154 159.194 105.615V106.413C159.194 106.612 158.991 106.695 158.803 106.773L158.746 106.794C154.239 108.719 95.475 133.777 95.386 133.777C95.298 133.777 95.204 133.777 95.115 133.688C94.959 133.532 95.115 133.313 95.255 133.114C95.281 133.08 95.305 133.045 95.329 133.01L118.707 96.81L118.749 96.748C118.885 96.528 119.041 96.284 119.291 96.284L119.526 96.32C120.058 96.393 120.528 96.461 121.002 96.461C124.549 96.461 127.835 94.735 129.817 91.782C129.865 91.7036 129.925 91.6334 129.995 91.574C130.136 91.469 130.344 91.523 130.506 91.595ZM97.926 139.503L161.98 112.187C161.98 112.187 162.074 112.187 162.162 112.275C162.512 112.625 162.809 112.859 163.096 113.078L163.237 113.167C163.367 113.24 163.498 113.324 163.508 113.459C163.508 113.511 163.508 113.543 163.498 113.59L158.01 147.296L157.989 147.431C157.953 147.692 157.916 147.99 157.671 147.99C156.208 148.088 154.791 148.541 153.543 149.311C152.295 150.081 151.254 151.144 150.51 152.408L150.483 152.449C150.41 152.569 150.343 152.684 150.223 152.747C150.113 152.799 149.972 152.778 149.858 152.752L98.777 142.215C98.725 142.205 97.983 139.508 97.926 139.503Z" fill="url(#paint0_radial_91_82)"/>
</g>
<defs>
<radialGradient id="paint0_radial_91_82" cx="0" cy="0" r="1" gradientUnits="userSpaceOnUse" gradientTransform="translate(21.4507 125.262) rotate(90) scale(199.78 230.653)">
<stop stop-color="#20C6B7"/>
<stop offset="1" stop-color="#4D9ABF"/>
</radialGradient>
<clipPath id="clip0_91_82">
<rect width="256" height="256" fill="white"/>
</clipPath>
</defs>
</svg>
