<svg width="256" height="256" viewBox="0 0 256 256" fill="none" xmlns="http://www.w3.org/2000/svg">
<g clip-path="url(#clip0_92_150)">
<path d="M196 0H60C26.8629 0 0 26.8629 0 60V196C0 229.137 26.8629 256 60 256H196C229.137 256 256 229.137 256 196V60C256 26.8629 229.137 0 196 0Z" fill="#F4F2ED"/>
<path d="M119.878 31.116C124.797 28.301 131.203 28.288 136.117 31.116C160.839 45.086 185.569 59.033 210.287 73.011C214.937 75.63 218.046 80.804 217.999 86.161V170.206C218.034 175.785 214.617 181.083 209.712 183.642C185.071 197.535 160.442 211.444 135.805 225.337C130.786 228.207 124.251 227.986 119.387 224.88C112 220.598 104.6 216.336 97.2116 212.058C95.7016 211.158 93.9996 210.442 92.9336 208.978C93.8766 207.708 95.5616 207.55 96.9306 206.995C100.014 206.014 102.847 204.44 105.679 202.913C106.396 202.423 107.27 202.611 107.957 203.049C114.274 206.671 120.536 210.399 126.874 213.986C128.226 214.767 129.595 213.73 130.751 213.086C154.931 199.419 179.141 185.805 203.318 172.134C204.214 171.703 204.709 170.752 204.636 169.771C204.653 142.046 204.64 114.317 204.645 86.591C204.747 85.479 204.103 84.455 203.096 83.999C178.541 70.17 153.997 56.321 129.446 42.489C129.02 42.1964 128.517 42.0393 128 42.0384C127.484 42.0375 126.98 42.1928 126.554 42.484C102.002 56.321 77.4636 70.184 52.9116 84.011C51.9086 84.468 51.2356 85.475 51.3546 86.591C51.3596 114.317 51.3546 142.046 51.3546 169.775C51.312 170.254 51.4172 170.734 51.6561 171.152C51.895 171.569 52.256 171.903 52.6906 172.109C59.2416 175.824 65.8016 179.513 72.3576 183.216C76.0516 185.203 80.5856 186.385 84.6556 184.862C88.2456 183.574 90.7626 179.909 90.6946 176.097C90.7286 148.534 90.6776 120.967 90.7196 93.407C90.6296 92.184 91.7906 91.173 92.9806 91.289C96.1286 91.267 99.2806 91.246 102.429 91.297C103.743 91.267 104.647 92.585 104.485 93.817C104.472 121.555 104.519 149.293 104.464 177.03C104.472 184.423 101.435 192.467 94.5966 196.084C86.1736 200.447 75.7616 199.522 67.4396 195.338C60.2356 191.742 53.3596 187.498 46.2836 183.646C41.3656 181.101 37.9656 175.782 38.0006 170.207V86.161C37.9486 80.693 41.1826 75.425 45.9756 72.844C70.6126 58.941 95.2456 45.026 119.878 31.116Z" fill="#81CD39"/>
<path d="M141.373 89.335C152.118 88.643 163.621 88.9251 173.29 94.2191C180.777 98.2751 184.927 106.789 185.059 115.106C184.85 116.227 183.677 116.846 182.606 116.769C179.489 116.765 176.37 116.812 173.253 116.748C171.93 116.799 171.162 115.58 170.996 114.411C170.1 110.431 167.929 106.49 164.184 104.57C158.434 101.692 151.768 101.837 145.497 101.897C140.921 102.139 135.999 102.536 132.121 105.227C129.144 107.266 128.24 111.382 129.302 114.697C130.304 117.077 133.051 117.845 135.299 118.553C148.249 121.94 161.971 121.602 174.672 126.059C179.932 127.876 185.076 131.409 186.876 136.915C189.231 144.295 188.199 153.115 182.948 159.039C178.69 163.914 172.489 166.568 166.304 168.009C158.076 169.844 149.537 169.891 141.181 169.076C133.324 168.18 125.147 166.116 119.082 160.763C113.895 156.259 111.362 149.241 111.613 142.469C111.673 141.325 112.812 140.527 113.908 140.621C117.047 140.596 120.187 140.587 123.326 140.626C124.58 140.536 125.51 141.62 125.574 142.802C126.153 146.593 127.578 150.573 130.884 152.82C137.265 156.937 145.272 156.655 152.578 156.77C158.63 156.502 165.425 156.421 170.365 152.42C172.971 150.138 173.743 146.32 173.039 143.036C172.276 140.263 169.375 138.971 166.884 138.126C154.101 134.083 140.225 135.55 127.566 130.977C122.426 129.161 117.456 125.727 115.482 120.447C112.727 112.974 113.989 103.73 119.79 98.0071C125.446 92.3121 133.61 90.119 141.373 89.335Z" fill="#81CD39"/>
</g>
<defs>
<clipPath id="clip0_92_150">
<rect width="256" height="256" fill="white"/>
</clipPath>
</defs>
</svg>
