<?xml version="1.0" encoding="UTF-8"?>
<svg xmlns="http://www.w3.org/2000/svg" xmlns:xlink="http://www.w3.org/1999/xlink" width="3872.98" height="3872.98" viewBox="0 0 3872.98 3872.98">
<defs>
<clipPath id="clip-0">
<path clip-rule="nonzero" d="M 788 697 L 3085 697 L 3085 3176 L 788 3176 Z M 788 697 "/>
</clipPath>
<clipPath id="clip-1">
<path clip-rule="evenodd" d="M 2688.601562 2970.550781 L 2393.488281 2970.550781 C 2375.269531 2970.550781 2360.488281 2955.800781 2360.488281 2937.578125 L 2360.488281 2464.460938 C 2360.488281 2421.03125 2426.46875 2421.03125 2426.46875 2464.460938 L 2426.46875 2904.601562 L 2688.621094 2904.601562 C 2732.039062 2904.601562 2732.058594 2970.550781 2688.601562 2970.550781 Z M 1926.058594 2496.910156 C 2097.851562 2496.910156 2149.480469 2690.058594 2086.378906 2810.21875 C 2066.148438 2789.988281 2038.398438 2751.871094 2009.871094 2780.359375 C 1980.601562 2809.589844 2021.710938 2838.839844 2045.601562 2862.738281 C 2016.121094 2888.679688 1976.519531 2905.128906 1926.058594 2905.128906 C 1676.710938 2905.128906 1678.191406 2496.910156 1926.058594 2496.910156 Z M 1926.058594 2971.078125 C 1590.839844 2971.078125 1589.738281 2430.960938 1926.039062 2430.960938 C 2158.160156 2430.960938 2236.429688 2695.671875 2134.53125 2858.390625 C 2170.5 2894.359375 2220.871094 2928.828125 2189.558594 2960.089844 C 2176.699219 2972.941406 2155.800781 2972.960938 2142.898438 2960.070312 L 2092.289062 2909.429688 C 2051.160156 2947.148438 1995.570312 2971.078125 1926.058594 2971.078125 Z M 1915.121094 1306.441406 C 1893.558594 1306.441406 1877.578125 1285.980469 1883.230469 1264.921875 L 1967.398438 950.769531 C 1978.648438 908.78125 2042.371094 925.921875 2031.128906 967.839844 L 1946.949219 1281.980469 C 1943.011719 1296.730469 1929.679688 1306.441406 1915.121094 1306.441406 Z M 1783.539062 1300.859375 C 1775.101562 1300.859375 1766.660156 1297.640625 1760.21875 1291.210938 L 1604.191406 1135.179688 C 1591.328125 1122.308594 1591.328125 1101.390625 1604.191406 1088.53125 L 1760.21875 932.511719 C 1790.929688 901.789062 1837.578125 948.460938 1806.871094 979.171875 L 1674.160156 1111.871094 L 1806.871094 1244.570312 C 1827.648438 1265.359375 1812.738281 1300.859375 1783.539062 1300.859375 Z M 2130.820312 1300.859375 C 2101.671875 1300.859375 2086.679688 1265.359375 2107.5 1244.539062 L 2240.191406 1111.871094 L 2107.5 979.179688 C 2076.789062 948.488281 2123.398438 901.800781 2154.128906 932.519531 L 2310.140625 1088.539062 C 2323.03125 1101.410156 2323.03125 1122.320312 2310.140625 1135.191406 L 2154.128906 1291.210938 C 2147.691406 1297.640625 2139.230469 1300.859375 2130.820312 1300.859375 Z M 2539.460938 1532.078125 L 1379.53125 1532.078125 C 1336.101562 1532.078125 1336.101562 1466.101562 1379.53125 1466.101562 L 2539.460938 1466.101562 C 2582.898438 1466.101562 2582.898438 1532.078125 2539.460938 1532.078125 Z M 2539.460938 1785.460938 L 1379.53125 1785.460938 C 1336.101562 1785.460938 1336.101562 1719.488281 1379.53125 1719.488281 L 2539.460938 1719.488281 C 2582.898438 1719.488281 2582.898438 1785.460938 2539.460938 1785.460938 Z M 2539.460938 2038.808594 L 1379.53125 2038.808594 C 1336.101562 2038.808594 1336.101562 1972.820312 1379.53125 1972.820312 L 2539.460938 1972.820312 C 2582.898438 1972.820312 2582.898438 2038.808594 2539.460938 2038.808594 Z M 2432.28125 809.808594 L 2729.890625 1107.390625 L 2504.53125 1107.378906 C 2464.679688 1107.378906 2432.28125 1074.988281 2432.28125 1035.171875 Z M 2842.488281 1145.53125 C 2844.558594 1132.25 2839.261719 1122.371094 2830 1114.25 L 2423.488281 707.75 C 2417.460938 701.25 2408.871094 697.199219 2399.320312 697.199219 L 1352.648438 697.199219 C 1175 697.199219 1030.480469 841.710938 1030.480469 1019.359375 L 1030.480469 2226.261719 L 985.570312 2226.261719 C 876.960938 2226.261719 788.582031 2314.609375 788.582031 2423.230469 L 788.582031 2978.828125 C 788.582031 3087.449219 876.949219 3175.800781 985.570312 3175.800781 L 2887.460938 3175.800781 C 2996.058594 3175.800781 3084.429688 3087.449219 3084.410156 2978.828125 L 3084.410156 2423.230469 C 3084.410156 2314.609375 2996.058594 2226.261719 2887.441406 2226.261719 L 2842.488281 2226.261719 Z M 2776.519531 2226.261719 L 2776.519531 1173.359375 L 2504.53125 1173.359375 C 2428.320312 1173.359375 2366.320312 1111.359375 2366.320312 1035.148438 L 2366.320312 763.160156 L 1352.648438 763.160156 C 1211.378906 763.160156 1096.46875 878.101562 1096.46875 1019.351562 L 1096.46875 2226.261719 Z M 2809.511719 2292.21875 L 985.570312 2292.21875 C 913.335938 2292.21875 854.574219 2350.980469 854.574219 2423.230469 L 854.574219 2978.828125 C 854.574219 3051.078125 913.335938 3109.839844 985.570312 3109.839844 L 2887.441406 3109.839844 C 2959.699219 3109.839844 3018.460938 3051.078125 3018.460938 2978.828125 L 3018.460938 2423.230469 C 3018.460938 2350.980469 2959.699219 2292.21875 2887.441406 2292.21875 Z M 1339.640625 2971.078125 C 1159.398438 2971.078125 1110.148438 2786.558594 1184.441406 2786.558594 C 1202.660156 2786.558594 1217.441406 2801.320312 1217.441406 2819.539062 C 1217.441406 2865.910156 1273.390625 2905.109375 1339.640625 2905.109375 C 1405.878906 2905.109375 1461.859375 2865.929688 1461.859375 2819.539062 C 1461.859375 2762.449219 1424.789062 2750.019531 1333.738281 2733.449219 C 1256.820312 2719.46875 1151.460938 2700.300781 1151.460938 2582.460938 C 1151.460938 2498.898438 1235.890625 2430.941406 1339.640625 2430.941406 C 1519.878906 2430.941406 1569.140625 2615.460938 1494.839844 2615.460938 C 1476.628906 2615.460938 1461.859375 2600.679688 1461.859375 2582.460938 C 1461.859375 2536.089844 1405.878906 2496.910156 1339.640625 2496.910156 C 1273.390625 2496.910156 1217.441406 2536.089844 1217.441406 2582.460938 C 1217.441406 2639.589844 1254.5 2652.019531 1345.539062 2668.570312 C 1422.46875 2682.550781 1527.828125 2701.71875 1527.828125 2819.539062 C 1527.828125 2903.121094 1443.410156 2971.078125 1339.640625 2971.078125 "/>
</clipPath>
<linearGradient id="linear-pattern-0" gradientUnits="userSpaceOnUse" x1="0" y1="0" x2="1.000008" y2="0" gradientTransform="matrix(2295.83, 0, 0, 2295.83, 788.581, 1936.5)">
<stop offset="0" stop-color="rgb(94.508362%, 95.684814%, 98.03772%)" stop-opacity="1"/>
<stop offset="0.0078125" stop-color="rgb(94.314575%, 95.552063%, 97.976685%)" stop-opacity="1"/>
<stop offset="0.015625" stop-color="rgb(93.928528%, 95.285034%, 97.854614%)" stop-opacity="1"/>
<stop offset="0.0234375" stop-color="rgb(93.54248%, 95.018005%, 97.732544%)" stop-opacity="1"/>
<stop offset="0.03125" stop-color="rgb(93.156433%, 94.752502%, 97.608948%)" stop-opacity="1"/>
<stop offset="0.0390625" stop-color="rgb(92.770386%, 94.485474%, 97.486877%)" stop-opacity="1"/>
<stop offset="0.046875" stop-color="rgb(92.384338%, 94.218445%, 97.364807%)" stop-opacity="1"/>
<stop offset="0.0546875" stop-color="rgb(91.999817%, 93.952942%, 97.241211%)" stop-opacity="1"/>
<stop offset="0.0625" stop-color="rgb(91.61377%, 93.685913%, 97.119141%)" stop-opacity="1"/>
<stop offset="0.0703125" stop-color="rgb(91.227722%, 93.418884%, 96.99707%)" stop-opacity="1"/>
<stop offset="0.078125" stop-color="rgb(90.841675%, 93.153381%, 96.873474%)" stop-opacity="1"/>
<stop offset="0.0859375" stop-color="rgb(90.455627%, 92.886353%, 96.751404%)" stop-opacity="1"/>
<stop offset="0.09375" stop-color="rgb(90.06958%, 92.619324%, 96.629333%)" stop-opacity="1"/>
<stop offset="0.101562" stop-color="rgb(89.683533%, 92.353821%, 96.505737%)" stop-opacity="1"/>
<stop offset="0.109375" stop-color="rgb(89.297485%, 92.086792%, 96.383667%)" stop-opacity="1"/>
<stop offset="0.117188" stop-color="rgb(88.911438%, 91.819763%, 96.261597%)" stop-opacity="1"/>
<stop offset="0.125" stop-color="rgb(88.525391%, 91.55426%, 96.138%)" stop-opacity="1"/>
<stop offset="0.132812" stop-color="rgb(88.139343%, 91.287231%, 96.01593%)" stop-opacity="1"/>
<stop offset="0.140625" stop-color="rgb(87.753296%, 91.020203%, 95.89386%)" stop-opacity="1"/>
<stop offset="0.148438" stop-color="rgb(87.367249%, 90.753174%, 95.770264%)" stop-opacity="1"/>
<stop offset="0.15625" stop-color="rgb(86.981201%, 90.487671%, 95.648193%)" stop-opacity="1"/>
<stop offset="0.164062" stop-color="rgb(86.595154%, 90.220642%, 95.526123%)" stop-opacity="1"/>
<stop offset="0.171875" stop-color="rgb(86.209106%, 89.953613%, 95.404053%)" stop-opacity="1"/>
<stop offset="0.179688" stop-color="rgb(85.823059%, 89.68811%, 95.280457%)" stop-opacity="1"/>
<stop offset="0.1875" stop-color="rgb(85.437012%, 89.421082%, 95.158386%)" stop-opacity="1"/>
<stop offset="0.195312" stop-color="rgb(85.050964%, 89.154053%, 95.036316%)" stop-opacity="1"/>
<stop offset="0.203125" stop-color="rgb(84.664917%, 88.88855%, 94.91272%)" stop-opacity="1"/>
<stop offset="0.210938" stop-color="rgb(84.27887%, 88.621521%, 94.790649%)" stop-opacity="1"/>
<stop offset="0.21875" stop-color="rgb(83.892822%, 88.354492%, 94.668579%)" stop-opacity="1"/>
<stop offset="0.226562" stop-color="rgb(83.506775%, 88.088989%, 94.544983%)" stop-opacity="1"/>
<stop offset="0.234375" stop-color="rgb(83.120728%, 87.82196%, 94.422913%)" stop-opacity="1"/>
<stop offset="0.242188" stop-color="rgb(82.73468%, 87.554932%, 94.300842%)" stop-opacity="1"/>
<stop offset="0.25" stop-color="rgb(82.348633%, 87.289429%, 94.177246%)" stop-opacity="1"/>
<stop offset="0.257812" stop-color="rgb(81.962585%, 87.0224%, 94.055176%)" stop-opacity="1"/>
<stop offset="0.265625" stop-color="rgb(81.576538%, 86.755371%, 93.933105%)" stop-opacity="1"/>
<stop offset="0.273438" stop-color="rgb(81.190491%, 86.489868%, 93.809509%)" stop-opacity="1"/>
<stop offset="0.28125" stop-color="rgb(80.804443%, 86.222839%, 93.687439%)" stop-opacity="1"/>
<stop offset="0.289062" stop-color="rgb(80.418396%, 85.955811%, 93.565369%)" stop-opacity="1"/>
<stop offset="0.296875" stop-color="rgb(80.032349%, 85.688782%, 93.443298%)" stop-opacity="1"/>
<stop offset="0.304688" stop-color="rgb(79.646301%, 85.423279%, 93.319702%)" stop-opacity="1"/>
<stop offset="0.3125" stop-color="rgb(79.260254%, 85.15625%, 93.197632%)" stop-opacity="1"/>
<stop offset="0.320312" stop-color="rgb(78.874207%, 84.889221%, 93.075562%)" stop-opacity="1"/>
<stop offset="0.328125" stop-color="rgb(78.488159%, 84.623718%, 92.951965%)" stop-opacity="1"/>
<stop offset="0.335938" stop-color="rgb(78.102112%, 84.356689%, 92.829895%)" stop-opacity="1"/>
<stop offset="0.34375" stop-color="rgb(77.716064%, 84.089661%, 92.707825%)" stop-opacity="1"/>
<stop offset="0.351562" stop-color="rgb(77.330017%, 83.824158%, 92.584229%)" stop-opacity="1"/>
<stop offset="0.359375" stop-color="rgb(76.94397%, 83.557129%, 92.462158%)" stop-opacity="1"/>
<stop offset="0.367188" stop-color="rgb(76.557922%, 83.2901%, 92.340088%)" stop-opacity="1"/>
<stop offset="0.375" stop-color="rgb(76.171875%, 83.024597%, 92.216492%)" stop-opacity="1"/>
<stop offset="0.382812" stop-color="rgb(75.785828%, 82.757568%, 92.094421%)" stop-opacity="1"/>
<stop offset="0.390625" stop-color="rgb(75.39978%, 82.49054%, 91.972351%)" stop-opacity="1"/>
<stop offset="0.398438" stop-color="rgb(75.013733%, 82.225037%, 91.848755%)" stop-opacity="1"/>
<stop offset="0.40625" stop-color="rgb(74.627686%, 81.958008%, 91.726685%)" stop-opacity="1"/>
<stop offset="0.414062" stop-color="rgb(74.241638%, 81.690979%, 91.604614%)" stop-opacity="1"/>
<stop offset="0.421875" stop-color="rgb(73.855591%, 81.425476%, 91.481018%)" stop-opacity="1"/>
<stop offset="0.429688" stop-color="rgb(73.469543%, 81.158447%, 91.358948%)" stop-opacity="1"/>
<stop offset="0.4375" stop-color="rgb(73.083496%, 80.891418%, 91.236877%)" stop-opacity="1"/>
<stop offset="0.445312" stop-color="rgb(72.697449%, 80.62439%, 91.114807%)" stop-opacity="1"/>
<stop offset="0.453125" stop-color="rgb(72.311401%, 80.358887%, 90.991211%)" stop-opacity="1"/>
<stop offset="0.460938" stop-color="rgb(71.925354%, 80.091858%, 90.869141%)" stop-opacity="1"/>
<stop offset="0.46875" stop-color="rgb(71.539307%, 79.824829%, 90.74707%)" stop-opacity="1"/>
<stop offset="0.476562" stop-color="rgb(71.153259%, 79.559326%, 90.623474%)" stop-opacity="1"/>
<stop offset="0.484375" stop-color="rgb(70.767212%, 79.292297%, 90.501404%)" stop-opacity="1"/>
<stop offset="0.492188" stop-color="rgb(70.381165%, 79.025269%, 90.379333%)" stop-opacity="1"/>
<stop offset="0.5" stop-color="rgb(69.995117%, 78.759766%, 90.255737%)" stop-opacity="1"/>
<stop offset="0.507812" stop-color="rgb(69.60907%, 78.492737%, 90.133667%)" stop-opacity="1"/>
<stop offset="0.515625" stop-color="rgb(69.223022%, 78.225708%, 90.011597%)" stop-opacity="1"/>
<stop offset="0.523437" stop-color="rgb(68.836975%, 77.960205%, 89.888%)" stop-opacity="1"/>
<stop offset="0.53125" stop-color="rgb(68.450928%, 77.693176%, 89.76593%)" stop-opacity="1"/>
<stop offset="0.539062" stop-color="rgb(68.06488%, 77.426147%, 89.64386%)" stop-opacity="1"/>
<stop offset="0.546875" stop-color="rgb(67.678833%, 77.160645%, 89.520264%)" stop-opacity="1"/>
<stop offset="0.554688" stop-color="rgb(67.292786%, 76.893616%, 89.398193%)" stop-opacity="1"/>
<stop offset="0.5625" stop-color="rgb(66.906738%, 76.626587%, 89.276123%)" stop-opacity="1"/>
<stop offset="0.570312" stop-color="rgb(66.520691%, 76.361084%, 89.154053%)" stop-opacity="1"/>
<stop offset="0.578125" stop-color="rgb(66.134644%, 76.094055%, 89.030457%)" stop-opacity="1"/>
<stop offset="0.585938" stop-color="rgb(65.748596%, 75.827026%, 88.908386%)" stop-opacity="1"/>
<stop offset="0.59375" stop-color="rgb(65.362549%, 75.559998%, 88.786316%)" stop-opacity="1"/>
<stop offset="0.601562" stop-color="rgb(64.976501%, 75.294495%, 88.66272%)" stop-opacity="1"/>
<stop offset="0.609375" stop-color="rgb(64.590454%, 75.027466%, 88.540649%)" stop-opacity="1"/>
<stop offset="0.617187" stop-color="rgb(64.204407%, 74.760437%, 88.418579%)" stop-opacity="1"/>
<stop offset="0.625" stop-color="rgb(63.818359%, 74.494934%, 88.294983%)" stop-opacity="1"/>
<stop offset="0.632813" stop-color="rgb(63.432312%, 74.227905%, 88.172913%)" stop-opacity="1"/>
<stop offset="0.640625" stop-color="rgb(63.046265%, 73.960876%, 88.050842%)" stop-opacity="1"/>
<stop offset="0.648438" stop-color="rgb(62.660217%, 73.695374%, 87.927246%)" stop-opacity="1"/>
<stop offset="0.65625" stop-color="rgb(62.27417%, 73.428345%, 87.805176%)" stop-opacity="1"/>
<stop offset="0.664062" stop-color="rgb(61.888123%, 73.161316%, 87.683105%)" stop-opacity="1"/>
<stop offset="0.671875" stop-color="rgb(61.502075%, 72.895813%, 87.559509%)" stop-opacity="1"/>
<stop offset="0.679688" stop-color="rgb(61.116028%, 72.628784%, 87.437439%)" stop-opacity="1"/>
<stop offset="0.6875" stop-color="rgb(60.72998%, 72.361755%, 87.315369%)" stop-opacity="1"/>
<stop offset="0.695312" stop-color="rgb(60.343933%, 72.096252%, 87.191772%)" stop-opacity="1"/>
<stop offset="0.703125" stop-color="rgb(59.957886%, 71.829224%, 87.069702%)" stop-opacity="1"/>
<stop offset="0.710938" stop-color="rgb(59.571838%, 71.562195%, 86.947632%)" stop-opacity="1"/>
<stop offset="0.71875" stop-color="rgb(59.185791%, 71.296692%, 86.825562%)" stop-opacity="1"/>
<stop offset="0.726563" stop-color="rgb(58.799744%, 71.029663%, 86.701965%)" stop-opacity="1"/>
<stop offset="0.734375" stop-color="rgb(58.413696%, 70.762634%, 86.579895%)" stop-opacity="1"/>
<stop offset="0.742188" stop-color="rgb(58.027649%, 70.495605%, 86.457825%)" stop-opacity="1"/>
<stop offset="0.75" stop-color="rgb(57.641602%, 70.230103%, 86.334229%)" stop-opacity="1"/>
<stop offset="0.757812" stop-color="rgb(57.255554%, 69.963074%, 86.212158%)" stop-opacity="1"/>
<stop offset="0.765625" stop-color="rgb(56.869507%, 69.696045%, 86.090088%)" stop-opacity="1"/>
<stop offset="0.773437" stop-color="rgb(56.483459%, 69.430542%, 85.966492%)" stop-opacity="1"/>
<stop offset="0.78125" stop-color="rgb(56.097412%, 69.163513%, 85.844421%)" stop-opacity="1"/>
<stop offset="0.789062" stop-color="rgb(55.711365%, 68.896484%, 85.722351%)" stop-opacity="1"/>
<stop offset="0.796875" stop-color="rgb(55.325317%, 68.630981%, 85.598755%)" stop-opacity="1"/>
<stop offset="0.804688" stop-color="rgb(54.93927%, 68.363953%, 85.476685%)" stop-opacity="1"/>
<stop offset="0.8125" stop-color="rgb(54.553223%, 68.096924%, 85.354614%)" stop-opacity="1"/>
<stop offset="0.820312" stop-color="rgb(54.167175%, 67.831421%, 85.231018%)" stop-opacity="1"/>
<stop offset="0.828125" stop-color="rgb(53.781128%, 67.564392%, 85.108948%)" stop-opacity="1"/>
<stop offset="0.835938" stop-color="rgb(53.395081%, 67.297363%, 84.986877%)" stop-opacity="1"/>
<stop offset="0.84375" stop-color="rgb(53.009033%, 67.03186%, 84.864807%)" stop-opacity="1"/>
<stop offset="0.851562" stop-color="rgb(52.622986%, 66.764832%, 84.741211%)" stop-opacity="1"/>
<stop offset="0.859375" stop-color="rgb(52.236938%, 66.497803%, 84.619141%)" stop-opacity="1"/>
<stop offset="0.867187" stop-color="rgb(51.850891%, 66.2323%, 84.49707%)" stop-opacity="1"/>
<stop offset="0.875" stop-color="rgb(51.46637%, 65.965271%, 84.373474%)" stop-opacity="1"/>
<stop offset="0.882813" stop-color="rgb(51.080322%, 65.698242%, 84.251404%)" stop-opacity="1"/>
<stop offset="0.890625" stop-color="rgb(50.694275%, 65.431213%, 84.129333%)" stop-opacity="1"/>
<stop offset="0.898438" stop-color="rgb(50.308228%, 65.16571%, 84.005737%)" stop-opacity="1"/>
<stop offset="0.90625" stop-color="rgb(49.92218%, 64.898682%, 83.883667%)" stop-opacity="1"/>
<stop offset="0.914062" stop-color="rgb(49.536133%, 64.631653%, 83.761597%)" stop-opacity="1"/>
<stop offset="0.921875" stop-color="rgb(49.150085%, 64.36615%, 83.638%)" stop-opacity="1"/>
<stop offset="0.929688" stop-color="rgb(48.764038%, 64.099121%, 83.51593%)" stop-opacity="1"/>
<stop offset="0.9375" stop-color="rgb(48.377991%, 63.832092%, 83.39386%)" stop-opacity="1"/>
<stop offset="0.945312" stop-color="rgb(47.991943%, 63.566589%, 83.270264%)" stop-opacity="1"/>
<stop offset="0.953125" stop-color="rgb(47.605896%, 63.299561%, 83.148193%)" stop-opacity="1"/>
<stop offset="0.960938" stop-color="rgb(47.219849%, 63.032532%, 83.026123%)" stop-opacity="1"/>
<stop offset="0.96875" stop-color="rgb(46.833801%, 62.767029%, 82.902527%)" stop-opacity="1"/>
<stop offset="0.976563" stop-color="rgb(46.447754%, 62.5%, 82.780457%)" stop-opacity="1"/>
<stop offset="0.984375" stop-color="rgb(46.061707%, 62.232971%, 82.658386%)" stop-opacity="1"/>
<stop offset="0.992188" stop-color="rgb(45.675659%, 61.967468%, 82.536316%)" stop-opacity="1"/>
<stop offset="1" stop-color="rgb(45.289612%, 61.700439%, 82.41272%)" stop-opacity="1"/>
</linearGradient>
</defs>
<path fill-rule="evenodd" fill="rgb(20.776367%, 43.138123%, 77.34375%)" fill-opacity="1" d="M 1936.488281 0 C 3001.578125 0 3872.980469 871.421875 3872.980469 1936.488281 C 3872.980469 3001.578125 3001.578125 3872.980469 1936.488281 3872.980469 C 871.414062 3872.980469 0 3001.578125 0 1936.488281 C 0 871.421875 871.414062 0 1936.488281 0 "/>
<g clip-path="url(#clip-0)">
<g clip-path="url(#clip-1)">
<path fill-rule="nonzero" fill="url(#linear-pattern-0)" d="M 788.582031 697.199219 L 788.582031 3175.800781 L 3084.429688 3175.800781 L 3084.429688 697.199219 Z M 788.582031 697.199219 "/>
</g>
</g>
</svg>
